<svg height="457" viewBox="0 0 768 457" width="768" xmlns="http://www.w3.org/2000/svg" xmlns:xlink="http://www.w3.org/1999/xlink"><linearGradient id="a"><stop offset="0" stop-color="#fff"/><stop offset="1" stop-color="#cae6f7"/></linearGradient><linearGradient id="b" x1="38.78973%" x2="61.152063%" xlink:href="#a" y1="72.806969%" y2="27.513494%"/><linearGradient id="c" x1="60.710408%" x2="39.346807%" xlink:href="#a" y1="69.240983%" y2="31.009524%"/><linearGradient id="d" x1="48.844164%" x2="48.844164%" y1="100.448488%" y2="-.466354%"><stop offset="0" stop-color="#05ce7c"/><stop offset="1" stop-color="#037a61"/></linearGradient><linearGradient id="e" x1="20.715327%" x2="91.733351%" y1="80.407827%" y2="-7.583142%"><stop offset="0" stop-color="#51dfb6"/><stop offset="1" stop-color="#00e585"/></linearGradient><linearGradient id="f"><stop offset="0" stop-color="#53e8b6"/><stop offset="1" stop-color="#56eaba" stop-opacity="0"/></linearGradient><linearGradient id="g" x1="80.831603%" x2="44.343327%" xlink:href="#f" y1="-29.552308%" y2="151.246902%"/><linearGradient id="h" x1="240.659467%" x2="120.473346%" y1="109.299762%" y2="-16.256553%"><stop offset="0" stop-color="#53e8b6"/><stop offset="1" stop-color="#56eaba" stop-opacity=".15"/></linearGradient><linearGradient id="i"><stop offset="0" stop-color="#4d86b5"/><stop offset="1" stop-color="#6ba4c8"/></linearGradient><linearGradient id="j" x1="105.666254%" x2="-102.792514%" xlink:href="#i" y1="15.420994%" y2="159.934179%"/><linearGradient id="k" x1="152.75583%" x2="-4.046813%" xlink:href="#i" y1="21.884154%" y2="63.499142%"/><linearGradient id="l" x1="349.508296%" x2="39.006342%" xlink:href="#i" y1="-45.533437%" y2="53.887208%"/><linearGradient id="m" x1="88.404282%" x2="-21.831939%" xlink:href="#f" y1="71.866837%" y2="40.966943%"/><linearGradient id="n" x1="-6.049918%" x2="112.3641%" xlink:href="#f" y1="50.594658%" y2="51.325087%"/><g fill="none" fill-rule="evenodd"><g fill-rule="nonzero" transform="translate(221 116)"><g fill="#eaecee" transform="translate(47.981221 35.469231)"><path d="m60.7981221 9.63692308-59.81220661 5.28692312c-.1971831 0-.39436619-.1338462-.39436619-.4015385v-8.23153847c0-.20076923.1314554-.40153846.39436619-.40153846l59.81220661-5.28692308c.1971831 0 .3943662.13384616.3943662.40153846v8.23153847c0 .20076923-.1971831.40153846-.3943662.40153846z"/><path d="m90.3098592 15.0576923-89.25821601 7.9638462c-.1971831 0-.39436619-.1338462-.39436619-.4015385v-2.2084615c0-.2007693.13145539-.4015385.39436619-.4015385l89.19248831-7.9638462c.1971831 0 .3943662.1338462.3943662.4015385v2.2084615c0 .2007693-.1314554.4015385-.3286385.4015385z"/><path d="m66.7793427 22.5530769-65.79342721 5.8223077c-.1971831 0-.39436619-.1338461-.39436619-.4015384v-2.2084616c0-.2007692.1314554-.4015384.39436619-.4015384l65.79342721-5.8223077c.1971831 0 .3943662.1338461.3943662.4015384v2.2084616c0 .2007692-.1971831.4015384-.3943662.4015384z"/></g><g transform="translate(95.962441 7.361538)"><path d="m35.0328638 8.09769231-4.8638497.40153846c-.7230047.06692308-1.314554-.46846154-1.314554-1.20461539v-4.95230769c0-.73615384.5915493-1.33846154 1.314554-1.40538461l4.8638497-.40153846c.7230047-.06692308 1.314554.46846153 1.314554 1.20461538v4.95230769c-.0657277.73615385-.657277 1.33846154-1.314554 1.40538462z" fill="#7fc9a3"/><path d="m20.8356808 9.36923077-4.8638498.40153846c-.7230047.06692308-1.314554-.46846154-1.314554-1.20461538v-4.9523077c0-.73615384.5915493-1.33846153 1.314554-1.40538461l4.8638498-.40153846c.7230046-.06692308 1.3145539.46846154 1.3145539 1.20461538v4.95230769c0 .66923077-.5915493 1.33846154-1.3145539 1.40538462z" fill="#f596a7"/><path d="m6.70422535 10.6407692-4.86384976.4015385c-.7230047.0669231-1.31455399-.4684615-1.31455399-1.20461539v-4.95230769c0-.73615385.59154929-1.33846154 1.31455399-1.40538462l4.86384976-.40153846c.7230047-.06692308 1.31455399.46846154 1.31455399 1.20461538v4.9523077c-.0657277.66923076-.59154929 1.33846158-1.31455399 1.40538458z" fill="#ffdc7e"/></g><g fill="#e4eef9"><path d="m137.43662 21.8169231-134.93896742 11.9792307c-1.31455399.1338462-2.43192488-.87-2.43192488-2.2753846v-16.4630769c0-1.3384615 1.11737089-2.5430769 2.43192488-2.6769231l134.93896742-11.97923074c1.314554-.13384615 2.431925.87 2.431925 2.27538462v16.46307692c0 1.3384615-1.051644 2.5430769-2.431925 2.6769231zm-134.93896742-7.5623077c-.3286385 0-.59154929.3346154-.59154929.6692308v16.4630769c0 .3346154.26291079.6023077.59154929.5353846l134.93896742-11.9792308c.328638 0 .591549-.3346154.591549-.6692307v-16.46307697c0-.33461538-.262911-.60230769-.591549-.53538461z"/><path d="m42.657277 83.3861538-38.64788733 3.413077c-.59154929.066923-1.11737089-.4015385-1.11737089-1.0038462v-39.3507692c0-.5353846.4600939-1.0038462.98591549-1.0707692l38.64788733-3.413077c.5915493-.066923 1.1173709.4015385 1.1173709 1.0038462v39.3507692c0 .5353846-.3943662 1.0038462-.9859155 1.0707692z"/></g></g><path d="m216 273.893054 164.079932-30.893054 149.920068 30.893054-155.691387 29.106946z" fill="#cae6f7" fill-rule="nonzero"/><path d="m158 395.972332 57.635743-123.972332 157.364257 29.565217-61.704933 123.434783z" fill="url(#b)" fill-rule="nonzero" opacity=".5"/><g transform="translate(57 216)"><g fill-rule="nonzero"><path d="m95.972511 39.6461078-92.97488028 14.7556886c-1.12978768.1994012-2.12665916-.5982036-2.12665916-1.7946108v-34.8952096c0-1.1299401.93041338-2.2598802 2.12665916-2.4592814l92.97488028-14.68922155c1.1297877-.19940119 2.1266592.5982036 2.1266592 1.79461078v34.89520957c0 1.1299401-.9304134 2.2598803-2.1266592 2.3928144z" fill="#fff"/><path d="m47.1258084 22.6305389-22.861586 3.5892216c-.1329162 0-.1993743-.0664671-.1993743-.1329342v-.3988023c0-.1329342.0664581-.1994012.1993743-.1994012l22.861586-3.5892216c.1329162 0 .1993743.0664671.1993743.1329341v.3988024c0 .0664671-.0664581.1994012-.1993743.1994012z" fill="#d3d4d6"/><path d="m73.110925 18.5095808-20.1368039 3.1904192c-.1329162 0-.1993743-.0664671-.1993743-.1329341v-.3988024c0-.1329342.0664581-.1994012.1993743-.1994012l20.1368039-3.1904192c.1329162 0 .1993743.0664671.1993743.1329341v.3988024c0 .0664671-.1329162.1994012-.1993743.1994012z" fill="#d3d4d6"/><path d="m97.966254 28.2802395-96.96236624 15.3538922v-9.1724551l96.96236624-15.3538922z" fill="#7d9aad" opacity=".1"/><path d="m95.0420976 17.1137725-13.2251616 2.1269461v-4.98503l13.2251616-2.060479z" fill="#5ec095"/><path d="m47.1258084 32.1353293-22.861586 3.5892216c-.1329162 0-.1993743-.0664671-.1993743-.1329341v-.3988024c0-.1329342.0664581-.1994012.1993743-.1994012l22.861586-3.5892216c.1329162 0 .1993743.0664671.1993743.1329341v.3988024c0 .0664671-.0664581.1994012-.1993743.1994012z" fill="#d3d4d6"/><path d="m73.110925 28.0143713-20.1368039 3.1904191c-.1329162 0-.1993743-.066467-.1993743-.1329341v-.3988024c0-.1329341.0664581-.1994012.1993743-.1994012l20.1368039-3.1904192c.1329162 0 .1993743.0664671.1993743.1329342v.3988024c0 .066467-.1329162.1994012-.1993743.1994012z" fill="#d3d4d6"/><path d="m95.0420976 26.6850299-13.2251616 2.0604791v-4.98503l13.2251616-2.060479z" fill="#5ec095"/><path d="m47.1258084 41.905988-22.861586 3.5892216c-.1329162 0-.1993743-.0664671-.1993743-.1329342v-.3988023c0-.1329342.0664581-.1994012.1993743-.1994012l22.861586-3.5892216c.1329162 0 .1993743.0664671.1993743.1329341v.3988024c0 .0664671-.0664581.1329342-.1993743.1994012z" fill="#d3d4d6"/><path d="m73.110925 37.7850299-20.1368039 3.1904192c-.1329162 0-.1993743-.0664671-.1993743-.1329341v-.3988024c0-.1329342.0664581-.1994012.1993743-.1994012l20.1368039-3.1904192c.1329162 0 .1993743.0664671.1993743.1329341v.3988024c0 .0664671-.1329162.1994012-.1993743.1994012z" fill="#d3d4d6"/><path d="m95.0420976 36.3892216-13.2251616 2.1269461v-4.98503l13.2251616-2.1269461z" fill="#5ec095"/><path d="m97.5675054 9.73592814-96.16486905 15.22095806v-7.3113772c0-.9305389.73103909-1.7281437 1.66145247-1.9275449l94.50341658-14.95508985z" fill="#7d9aad" opacity=".1"/></g><g transform="translate(86.003796 33.065868)"><path d="m.59812289 2.19341317c0 .93053893.79749719 1.59520958 1.72791057 1.46227545s1.72791057-1.06347305 1.72791057-1.99401197-.79749719-1.59520958-1.72791057-1.46227545c-.99687148.13293413-1.72791057.99700599-1.72791057 1.99401197z" fill="#010101" fill-rule="nonzero" opacity=".1"/><path d="m1.39562008 2.12694611.53166479.66467066 1.26270388-1.79461078" stroke="#fff" stroke-linecap="round" stroke-linejoin="round" stroke-width="1.0959"/></g><g transform="translate(86.003796 23.095808)"><path d="m.59812289 2.39281437c0 .93053892.79749719 1.59520958 1.72791057 1.46227545s1.72791057-1.06347305 1.72791057-1.99401198c0-.93053892-.79749719-1.59520958-1.72791057-1.46227544-.99687148.13293413-1.72791057 1.06347305-1.72791057 1.99401197z" fill="#010101" fill-rule="nonzero" opacity=".1"/><path d="m1.39562008 2.39281437.53166479.59820359 1.26270388-1.72814371" stroke="#fff" stroke-linecap="round" stroke-linejoin="round" stroke-width="1.0959"/></g><g transform="translate(86.003796 13.790419)"><path d="m.59812289 2.19341317c0 .93053893.79749719 1.59520958 1.72791057 1.46227545s1.72791057-1.06347305 1.72791057-1.99401197-.79749719-1.59520958-1.72791057-1.46227545c-.99687148.13293413-1.72791057 1.06347305-1.72791057 1.99401197z" fill="#010101" fill-rule="nonzero" opacity=".1"/><path d="m1.39562008 2.19341317.53166479.5982036 1.26270388-1.72814372" stroke="#fff" stroke-linecap="round" stroke-linejoin="round" stroke-width="1.0959"/></g><path d="m19.0804906 26.6850299c0 .5982036-.5316647 1.1964072-1.1297876 1.3293414-.5981229.1329341-1.1297877-.3323354-1.1297877-.930539s.5316648-1.1964072 1.1297877-1.3293413 1.1297876.3323353 1.1297876.9305389z" fill="#5ec095" fill-rule="nonzero"/><path d="m19.0804906 36.1898204c0 .5982036-.5316647 1.1964071-1.1297876 1.3293413-.5981229.1329341-1.1297877-.3323354-1.1297877-.9305389 0-.5982036.5316648-1.1964072 1.1297877-1.3293414.5981229-.1329341 1.1297876.3323354 1.1297876.930539z" fill="#feca5b" fill-rule="nonzero"/><path d="m19.0804906 45.960479c0 .5982036-.5316647 1.1964072-1.1297876 1.3293414-.5981229.1329341-1.1297877-.3323354-1.1297877-.930539s.5316648-1.1964071 1.1297877-1.3293413c.5981229-.1329341 1.1297876.2658683 1.1297876.9305389z" fill="#5ec095" fill-rule="nonzero"/><g fill-rule="nonzero"><g transform="translate(5.589497 24.42515)"><path d="m6.77872608 3.32335329c0-1.72814371-1.39562007-2.92455089-3.12353064-2.65868263s-3.12353065 1.92754491-3.12353065 3.65568862c0 1.12994012.59812289 1.99401198 1.46207818 2.39281437.13291619-.46526946.59812289-.86407185 1.72791057-.99700599 1.06332958-.19940119 1.52853627.06646707 1.66145247.46526947.86395528-.66467066 1.39562007-1.72814372 1.39562007-2.85808384z" fill="#b6dfcc"/><path d="m3.65519544 5.71616766c-1.12978768.1994012-1.59499438.53173653-1.72791057.99700599.46520669.26586827 1.06332958.33233533 1.72791057.26586827.59812289-.06646707 1.19624578-.3988024 1.72791057-.79760479-.1329162-.46526947-.59812289-.66467066-1.72791057-.46526947z" fill="#0b79af"/></g><g transform="translate(6.918659 25.089821)"><path d="m4.12040213 2.59221557c0 1.32934132.26583239 1.99401197-1.86082677 2.3263473-2.06020106.33233533-1.86082677-.53173652-1.86082677-1.79461077 0-1.06347306.73103909-1.86107785 1.86082677-2.06047905 1.12978768-.13293413 1.86082677.46526946 1.86082677 1.52874252z" fill="#754c29"/><path d="m1.12978768 3.38982036c0-.13293413.2658324-.3988024.59812289-.53173653.59812289-.1994012.99687148-.33233533 1.32916198-.79760479.26583239.1994012.46520669.59820359.46520669.99700599 0 .79760479-.53166479 1.52874251-1.19624578 1.66167665-.66458099.13293413-1.19624578-.53173653-1.19624578-1.32934132z" fill="#fbbd9f"/><path d="m3.25644684.99700599s0 .06646706 0 0c-.06645809.13293413-.06645809.26586826-.13291619.33233533-.0664581.19940119-.3987486.26586826-.79749719.33233533-.46520669.06646706-.73103909.06646706-.79749719-.06646707-.13291619-.26586826-.19937429-.59820359-.19937429-.66467066 0-.19940119.39874859-.53173652.99687148-.59820359s.99687148.06646707.99687148.26586826c.0664581.06646707 0 .1994012-.0664581.3988024z" fill="#fff"/><g fill="#f0615d" transform="translate(1.993743 .664671)"><path d="m.56873875.93285624h-.18957958v-.83957062h.18957958z"/><path d="m.94789792.55971374-.85310813.09328563v-.18657125l.85310813-.09328562z"/></g><path d="m2.59186586 4.18742515.19937429.99700599c0 .06646706-.26583239.39880239-.39874859.39880239s-.39874859-.19940119-.39874859-.26586826l.19937429-1.06347305z" fill="#fbbd9f"/></g></g><g fill-rule="nonzero" transform="translate(5.589497 43.700599)"><path d="m6.77872608 3.32335329c0-1.72814371-1.39562007-2.92455089-3.12353064-2.65868263s-3.12353065 1.92754491-3.12353065 3.65568862c0 1.12994012.59812289 1.99401198 1.46207818 2.39281437.13291619-.46526946.59812289-.86407185 1.72791057-.99700599 1.06332958-.19940119 1.52853627.06646707 1.66145247.46526947.86395528-.73113773 1.39562007-1.79461078 1.39562007-2.85808384z" fill="#afe0eb"/><path d="m3.65519544 5.6497006c-1.12978768.1994012-1.59499438.53173653-1.72791057.99700599.46520669.26586826 1.06332958.33233533 1.72791057.26586826.59812289-.06646707 1.19624578-.39880239 1.72791057-.79760479-.1329162-.3988024-.59812289-.59820359-1.72791057-.46526946z" fill="#9ab1ba"/><g fill="#fedcc6"><path d="m2.32603346 4.05449102c0-.33233533.0664581-1.19640719.39874859-1.32934132.66458099-.26586826 1.66145247.26586826 1.99374297-.26586826.33229049.19940119.1993743.79760479.1993743 1.19640718 0 .79760479-.59812289 1.52874252-1.32916198 1.66167665s-1.19624578-.3988024-1.26270388-1.26287425z"/><path d="m3.92102783 4.85209581.1993743.99700599c0 .06646706-.2658324.39880239-.39874859.39880239-.1329162 0-.3987486-.1994012-.3987486-.26586826l.1993743-1.06347306z"/><path d="m2.65832395 3.98802395c0 .1994012-.13291619.33233533-.33229049.33233533s-.33229049-.06646706-.33229049-.26586826.13291619-.33233533.33229049-.33233533.33229049.06646706.33229049.26586826z"/><path d="m5.31664791 3.58922156c0 .19940119-.1329162.33233533-.3322905.33233533-.19937429 0-.33229049-.06646707-.33229049-.26586827 0-.19940119.1329162-.33233533.33229049-.33233533.1993743-.06646706.3322905.06646707.3322905.26586827z"/></g><path d="m4.98435741 3.25688623c0 .06646706-.99687148-.06646707-1.39562007 0-.66458099.13293413-.93041339.59820359-.93041339.53173652 0-.13293413 0-.33233532.1329162-.46526946.0664581-.13293413-.33229049.13293414-.46520669.5982036 0 .06646706-.0664581-.26586827-.0664581-.33233533 0-.73113773 0-1.72814372 1.46207818-1.92754491 1.39562007-.1994012 1.39562007.79760479 1.26270387 1.59520958z" fill="#e4a24f"/></g><g fill-rule="nonzero" transform="translate(5.589497 34.39521)"><path d="m6.77872608 2.85808383c0-1.72814371-1.39562007-2.9245509-3.12353064-2.65868263-1.72791057.26586826-3.12353065 1.92754491-3.12353065 3.65568862 0 1.12994012.59812289 1.99401198 1.46207818 2.39281437.13291619-.46526946.59812289-.86407185 1.72791057-.99700599 1.06332958-.19940119 1.52853627.06646707 1.66145247.46526946.86395528-.66467065 1.39562007-1.72814371 1.39562007-2.85808383z" fill="#0b79af"/><path d="m3.65519544 5.2508982c-1.12978768.1994012-1.59499438.53173653-1.72791057.99700599.46520669.26586827 1.06332958.33233533 1.72791057.26586827.59812289-.06646707 1.19624578-.3988024 1.72791057-.7976048-.1329162-.39880239-.59812289-.66467065-1.72791057-.46526946z" fill="#afe0eb"/><g fill="#a98068"><path d="m2.45894966 3.65568862c0-.33233533.0664581-1.19640718.33229049-1.32934131.59812289-.1994012 1.52853628.26586826 1.86082677-.1994012.2658324.1994012.1993743.79760479.1993743 1.19640718 0 .79760479-.53166479 1.52874252-1.19624578 1.66167665s-1.12978768-.46526946-1.19624578-1.32934132z"/><path d="m3.92102783 4.38682635.1993743.99700599c0 .06646706-.2658324.39880239-.39874859.39880239-.1329162 0-.3987486-.1994012-.3987486-.26586826l.1993743-1.06347306z"/><path d="m2.72478205 3.52275449c0 .1994012-.13291619.33233533-.33229049.33233533s-.3322905-.06646707-.3322905-.26586826c0-.1994012.1329162-.33233533.3322905-.33233533s.33229049.13293413.33229049.26586826z"/><path d="m5.18373171 3.1239521c0 .19940119-.1329162.33233533-.33229049.33233533-.1993743 0-.3322905-.06646707-.3322905-.26586827s.1329162-.33233533.3322905-.33233533c.19937429 0 .33229049.13293413.33229049.26586827z"/></g><path d="m2.45894966 2.79161677v.53173652s.1329162.06646707.19937429.13293414c0 0 .1329162-.26586827.1329162-.53173653-.0664581-.3988024-.33229049-.13293413-.33229049-.13293413z" fill="#424243"/><path d="m4.85144122 2.39281437v.53173653s-.1329162.06646706-.1993743.1994012c0 0-.1329162-.1994012-.1329162-.53173653.1329162-.33233533.3322905-.1994012.3322905-.1994012z" fill="#424243"/><path d="m4.98435741 2.65868263c0 .06646707-.86395528.26586827-1.26270387.33233533-.59812289.06646707-1.26270388.06646707-1.26270388 0 0-.73113772 0-1.52874251 1.32916198-1.72814371 1.12978768-.1994012 1.19624577.46526946 1.19624577 1.39580838z" fill="#afe0eb"/><path d="m3.65519544 3.78862275c.39874859-.06646706 1.12978768.06646707 1.06332958.1994012-.1993743.53173653-.66458099.86407186-1.06332958.93053892-.46520669.06646707-.93041339-.19940119-1.12978768-.66467065 0-.13293414.73103908-.46526947 1.12978768-.46526947z" fill="#afe0eb"/><path d="m4.12040213 2.59221557c0 .26586826-.1993743.46526946-.46520669.53173653-.2658324.06646706-.46520669-.13293414-.46520669-.3988024s.19937429-.46526946.46520669-.53173653c.26583239 0 .46520669.1994012.46520669.3988024z" fill="#a7bfc6"/><path d="m3.98748593 2.65868263c0 .13293414-.1329162.33233533-.26583239.33233533-.1329162 0-.2658324-.06646706-.2658324-.26586826s.1329162-.33233533.2658324-.33233533c.13291619 0 .26583239.06646707.26583239.26586826z" fill="#9ab1ba"/></g></g><g fill-rule="nonzero"><path d="m600 392.055606-71.152774-118.055606-156.847226 29.4134 73.925838 117.5866z" fill="url(#c)" opacity=".5"/><path d="m553 371.759777 140.372907 19.240223 34.627093-8.178771-131.116819-15.821229z" fill="#cbe4f6"/><path d="m415 419.586345 221.04049 37.413655 131.95951-35.570281-206.747646-32.429719z" fill="#cbe4f6"/><path d="m0 422.417607 163.181486 33.582393 147.818514-29.392777-155.700387-28.607223z" fill="#cbe4f6"/><path d="m691 433 .1341-41.909814 34.8659-8.090186-.06705 40.981432z" fill="#1ca5ff"/><path d="m551 371 .332068 39.347116 139.535105 24.652884.132827-44.013058z" fill="#89cdff"/><path d="m351.225154 190.782412c3.791612 8.477339 2.619659 10.012606 2.550721 11.681373-.344692 5.807311-1.034076 8.210336-5.308256 12.215378-3.102227 2.937031-3.240104 3.537788-8.686237 4.7393-5.446132 1.201513-11.305895.534006-16.269459-1.93577-4.480995-2.269524-8.479421-6.007563-13.511923-6.074314 4.549933-3.003781 8.065791-7.743081 10.616511-13.28339 2.550721-5.540308 3.033289-8.477339 5.308256-14.151148 3.171166-8.010084 7.858976-12.34888 14.752814-11.948376 1.930275.133502 3.240105 1.134762 4.825687 2.202773 2.206029 1.535267 2.688597 4.071793 2.619659 6.474818-.137877 3.270785 1.792398 7.209076 3.102227 10.079356z" fill="#173963"/><path d="m367.72431 224.767787 4.378888.265404c1.61682.663507 1.34735 3.317537 2.896802 3.781993-.606307.597157-3.166272-.398105-4.783092-.928911-3.974683-1.459717-4.378888 1.393366-7.140955.066351-.336837-.132702-.673675-.265403-1.07788-.331754-4.58099-.86256-8.757774-3.317538-11.317739-4.777255-1.61682-.92891-4.176785-5.507113-5.254665-9.289106-.404205-1.526067-1.549452-1.990523-1.414717-3.582941.202102-1.725119 1.88629-2.322276 3.23364-3.052135 1.751554-.92891 3.435742-1.857821 5.119929-2.919433.134735 2.056874-.336837 11.478681 1.751555 13.933659.80841.928911 2.357863.663508 6.265177 3.516591z" fill="#a5754e"/><path d="m343.575037 193.030515c-.532038-.333842-.598543-.80122-.665047-1.669209-.066505-.534147.066504-1.001526.665047-.934758.199515 0 .598543 0 .864563-.066768 1.3966-.600916 3.591257-2.871041 3.524753-5.274702-.066505-1.335368-.266019-2.804273-.199515-3.805798.066505-2.670736.532039-4.072872-.066504-5.408239-.665048-1.535673-5.852421-2.871041-5.852421-2.871041-1.3966 1.068294-2.7932 2.136588-4.189801 3.204882-.798057.600916-1.596114.867989-2.061648 1.802747-.532038 1.068294-.532038 2.537198-.332524 3.672261.465534 2.47043 1.928639 3.405188 1.66262 5.942386-.13301 1.402136-.997572 4.673787-1.795629 5.274703-.731553.534147 1.862134 2.003051 2.460677 2.737503.864562 1.201831 2.061648 2.203357 3.524753 2.336894 1.463105.200305 3.059219-.667684 3.391743-2.06982-.332524-.667684-.399028-2.47043-.931067-2.871041z" fill="#af7c4e"/><path d="m348.553068 229.906389c-.068414.401189-.068414.869243-.136828 1.270431-.205243 1.471025-.068415 1.939079-1.57353 2.072809-1.026215.066864-2.120844.534918-3.078645.802377-2.53133.735513-5.06266 1.40416-7.525576 2.139673-3.283888.936107-6.567776 1.872214-9.920078 2.808321 0 0-1.641944-10.029718 2.53133-15.579495 1.915601-2.540862 1.505115-6.15156.684143-9.22734l-2.668159-10.497771 5.883633-9.695394c2.05243.13373 1.778773.13373 3.831202.267459 4.241689.267459 9.851664-1.136701 12.725066 2.540862 1.026215 1.337296 2.326087 3.343239 2.873402 4.881129.4789 1.270431.410486 2.540862.820972 3.811293-.752558-.468054-2.873402-.401189-3.147059.334324-.205243.534918-.068415 2.273403-.547315 3.543833-.342072.936107-1.641944 3.677564-2.05243 4.613671-.684143 1.53789-.136828 3.276374.273657 4.947994.684144 2.674591 1.026215 5.416047 1.026215 8.157503.136829.869243.068415 1.872214 0 2.808321z" fill="#ffb81c"/><path d="m346.048134 196.003482c1.094092.54286 1.846281.678575 3.350658 2.850017 1.025712 1.425008 3.48742 6.175037 3.966085 7.803618.136762.610718.752189 2.035726.615427 2.646444-.205142.678576-4.102847 1.492866-5.196939 1.696439 0 0 .957331-2.782159 0-5.632177-.410285-1.425008-.752189-1.832153-1.504377-4.071452-.547047-1.560724-1.504378-5.428604-1.230854-5.292889z" fill="#f3bd53"/><path d="m335 194.531915 1.142857-1.531915 4.857143 1.340426-.571429 1.659574z" fill="#f3bd53"/><path d="m338 196.22093 3 3.77907v-3.77907l-.264706-1.22093h-2.029412z" fill="#af7c4e"/><path d="m344.266667 196-.266667-2.294118 1.4-.705882 1.6 1.941176z" fill="#f3bd53"/><path d="m625.021277 377-17.021277-1.408451 13.049645-3.591549 16.950355 1.408451z" fill="#e6e7e8"/><path d="m628.981132 376-16.981132-1.408451 13.018868-3.591549 16.981132 1.478873z" fill="#fff"/><path d="m654.992906 338.018483s-3.90514 2.733964-4.881425 7.245005c-1.106456 5.057834-2.473255 11.277603-4.100397 12.234491-2.408169 1.435331-10.34862 7.313355-13.277475 8.338591-1.041371.341746-4.295654.956888-5.727539 1.503681-1.887484.75184-2.603427.478443-3.124112 2.118822-.325428 1.161935-1.171542 2.392219-.781028 3.417455 1.236628 3.14406.390514-1.230283 3.44954-1.982124 1.887485-.478443 6.76891-1.572029 7.354681-1.572029 0 0 14.969703-4.100947 16.792101-6.356467 1.822399-2.32387 10.088278-20.70978 9.242165-23.03365-.781028-2.255521-4.946511-1.913775-4.946511-1.913775z" fill="#df9c83"/><g transform="translate(652 334)"><path d="m27.9645833 3.11029412c.775.06617647 1.0333334.19852941.9041667.72794117l-3.4229167 34.74264711c-.1291666.4632352-.7104166.992647-1.35625 1.0588235l-22.86249997 1.8529412c-.64583333.0661764-1.03333333-.1985295-.90416666-.7279412l2.7125-39.6397059c.06458333-.66176471.45208333-1.19117647 1.35625-1.05882353z" fill="#d3d4d6"/><path d="m29.7729167 3.375c1.0333333.13235294 1.1625.86029412 1.0333333 1.78676471l-3.1 39.57352939c-.2583333-.0661765-2.51875-.3308823-3.4875-.3970588l.3229167-4.7647059c-.6458334.0661765-1.0333334-.1985294-.9041667-.7279412 0 0 2.2604167-25.742647 3.3583333-34.41176467.1291667-.92647059.6458334-1.38970588 1.2916667-1.32352941.58125.13235294 1.4854167.26470588 1.4854167.26470588z" fill="#8d9fb6"/></g><path d="m653.989028 338.611397c1.86671-.857346 4.277877-.791396 5.755689-1.582792 1.477812-.791397-3.888979 15.102478-5.133452 14.970579-1.244474-.19785-5.989028-.395699-6.611265-1.648743 0-.131899 2.566726-10.156251 5.989028-11.739044z" fill="#61b488"/><path d="m669.252857 324c.141413.662953-.848475 2.254039-.636356 4.110306.141412 1.3922.919181 3.513648 1.838362 4.640667 2.474718 2.916992-4.100961 4.110306-7.212035 4.242897-3.111074.13259-2.191893-1.922563-1.838362-2.585515.212118-.397772 1.343418-.397772.212118-5.369916-1.131299-5.038439 7.636273-5.038439 7.636273-5.038439z" fill="#e5b48f"/><path d="m670.082343 334c.871088.479299 5.299123.958599 8.420524 1.848726 4.065081 1.095542 3.702127 41.151274 3.193992 41.151274-4.863579-.273885-27.802248-2.875796-27.94743-3.08121-.798498-1.164013-.943679-23.348726-.508135-28.004777.072591-.616242 1.524406-8.011147 2.540676-8.353503 3.121401-.958599 3.702127-1.300956 5.081351-1.917198.145181.958599.725907 1.780255 2.250312 1.643312 4.428034-.616242 4.645806-2.259554 6.96871-3.286624z" fill="#57f79d"/><path d="m663.559459 319.019865c2.233348-.322826 7.019092 3.357384 7.401951 6.069118.38286 2.711733-2.169537 5.488032-3.828595 6.908464-1.531438 1.355867-3.956215 2.259778-5.168604 1.936952-1.212388-.322825-5.679083.839346-3.254306-10.717804.51048-2.195213 4.849554-4.19673 4.849554-4.19673z" fill="#e5b48f"/><path d="m672.071762 338.56979s-2.181163 2.55651-1.431388 7.079567c.954259 5.637433 4.771295 9.701628 5.725554 12.192587.204484.458861.068161 1.048825-.408968 1.245479-2.862778 1.179928-4.839457 3.539784-8.588332 6.882913-1.295066 1.179927-3.612552 3.015371-4.703134 3.933092-.272645.262206-1.567711.917722-1.908518.917722-1.704034.131103-4.294165.327758-6.611651 1.179928-.408969.131103-1.090582 1.179927-1.295066 1.442134-1.704034 1.966546-2.181164 2.753165-1.635873 3.015371.136323.065551.613452-.131103.886098-.262206.068161 0-.272646.327757-.068162.524412.204484.262206.954259-.065552 1.431389-.262206.068161 0 .068161-.065552.136323 0 .068161 0-.136323.262206-.068162.393309.272646.327758 1.158743.131103 2.385648-.786619.817936-.655515 1.363227-.589963 3.817036-.45886 2.658293.065551 4.634972-1.573237 4.634972-1.573237s9.133623-4.391954 14.791015-7.866186c2.453809-1.507685 4.089682-3.146474 4.430489-3.933092.136323-.327758.408968-.85217.408968-1.573237-.068161-5.375227-4.02152-20.255428-5.9982-21.828665-2.113002-1.70434-5.930038-.262206-5.930038-.262206z" fill="#e5b48f"/><path d="m677.348757 336.803318c1.547364.26429 4.305709 2.114321 5.651243 11.893056-2.287408 1.123233-4.843922 2.642901-9.149631 3.303626-.538214-.462508-3.363835-6.078673-3.767495-9.844807-.20183-1.585741-.269107-6.409035 2.691068-6.144745 1.61464.198217 3.767495.660725 4.574815.79287z" fill="#71bc92"/><path d="m659.472223 375.108206c-1.204286.656859-2.975295 1.16775-2.337732 1.751625.425042.364922 1.345967-.072985 2.05437-.291938 1.275127-.437906 1.91269-.583875 2.550254-.729844 1.700168-.51089 3.329497-1.16775 3.258656-1.313718 0-.072985-4.746304-3.722204-4.250422-2.116547.354202 1.240734-1.275126 2.700422-1.275126 2.700422z" fill="#e5b48f"/><path d="m436 224.031469-108.291605 13.968531-26.708395-5.468531 101.067747-11.531469z" fill="#cbe4f6"/><path d="m327 279-.425428-38.893805-28.574572-6.106195.283619 38.230088z" fill="#1ca5ff"/><path d="m434 225v36.492083l-108.599755 19.507917-.400245-39.970767z" fill="#89cdff"/><g transform="translate(324 197)"><g transform="translate(0 9.161681)"><path d="m49.6355362 23.4277273-18.0791688 2.5521826-11.9651226-2.2904202 30.898943-.4580841z" fill="#f7f1eb"/><path d="m26.5599426 20.1556984c.1972273.0654406 5.6538491-.3272029 5.9168189-.2617623l2.4324699 1.5051333c1.5778184.6544058 1.3148487 3.2720289 2.8269246 3.730113-.5916819.5889652-3.0898943-.3926435-4.6677127-.9161681-3.8788035-1.4396928-3.5500913.7198464-6.245531-.5235246-.3287122-.1308812-.6574243-.2617624-1.0518789-.3272029-4.4704854-.8507276-17.22451723-2.0940986-21.43203288-5.300687-1.24910621-.9816086-3.81306106-9.09624045-3.74731863-12.76091289 0-1.70145506 1.77504567-1.11248984 3.08989431-1.83233621 1.70930323-.91616811 3.35286403-1.83233622 4.99642484-2.87938549.13148486 2.02865796-.32871216 11.32122019 1.70930326 13.74252159.7889092.9161681 3.7473186 1.4396928 6.245531 2.1595391 4.9306824 1.3742522 7.4288948 3.2065884 9.9271073 3.6646725" fill="#af7c4e"/><g transform="translate(19.065305 5.889652)"><path d="m.72316675 19.1086491 11.57066805 2.028658 19.7884721-2.8793855 6.8372129-17.86527812-20.5116388 2.09409853-6.1140462 17.14543169-11.70215291-1.701455z" fill="#d1d3d4"/><ellipse cx="26.996854" cy="10.056064" fill="#f7f1eb" rx="1.439829" ry="1.051697" transform="matrix(.17060679 -.98533919 .98533919 .17060679 12.482373 34.941489)"/></g></g><path d="m10.0585921.3272029c-2.56395484.98160868-5.12790969 1.11248984-6.31127347 2.09409853-1.8407881 1.50513332-3.4843489 4.64628112-3.15563674 14.92045207 2.30098512-.7198464 4.01028836-.785287 6.37701591-.8507276 1.51207594-.0654405 2.30098512 0 2.30098512-.0654405-.13148486-1.5051334-.32871216-3.7955536-.32871216-6.3477362 0-2.68306375.1972273-4.97348403.72316676-7.59110719z" fill="#ffcf65"/></g></g><g transform="translate(412 139)"><g fill-rule="nonzero"><path d="m86.4666667 82.4529915-80.4666667-14.3589744c-1.2-.2051282-2.13333333-1.3675214-2.13333333-2.5982906l-.13333334-60.17094018c0-1.23076923.93333334-2.05128205 2.13333334-1.84615384l80.46666663 13.05982902c1.2.2051282 2.1333334 1.3675214 2.1333334 2.5982906l.1333333 61.4700855c0 1.2307692-.9333333 2.0512821-2.1333333 1.8461539z" fill="#edf1f1"/><path d="m83.4666667 79.4529915-80.4666667-14.3589744c-1.2-.2051282-2.13333333-1.3675214-2.13333333-2.5982906l-.13333334-60.17094018c0-1.23076923.93333334-2.05128205 2.13333334-1.84615384l80.46666663 13.05982902c1.2.2051282 2.1333334 1.3675214 2.1333334 2.5982906l.1333333 61.4700855c0 1.2307692-.9333333 2.0512821-2.1333333 1.8461539z" fill="#f7f8f8"/><path d="m1 2.8034188v15.042735l84.2666667 15.1111112v-16.1367522l-82.00000003-13.40170938c-1.26666667-.20512821-2.26666667-1.84615385-2.26666667-.61538462z" fill="#e4eef9"/><path d="m83.3333333 13.5384615-80.59999997-13.05982902c-1.26666666-.20512821-2.33333333.68376068-2.33333333 1.98290598v2.05128205l85.2 13.88034189v-2.0512821c.0666667-1.2991453-.9333333-2.5982906-2.2666667-2.8034188z" fill="#173963"/><path d="m5.53333333 3.14529915c0 .41025641-.33333333.68376068-.73333333.61538461s-.73333333-.47863248-.73333333-.88888889.33333333-.68376068.73333333-.61538461c.4.06837606.73333333.47863248.73333333.88888889z" fill="#cbdbf0"/><path d="m8.73333333 3.76068376c0 .41025641-.33333333.68376068-.73333333.61538462-.4-.06837607-.73333333-.47863248-.73333333-.88888889s.33333333-.68376069.73333333-.61538462.73333333.47863248.73333333.88888889z" fill="#cbdbf0"/><path d="m11.9333333 4.30769231c0 .41025641-.3333333.68376068-.7333333.61538461s-.7333333-.47863248-.7333333-.88888889.3333333-.68376068.7333333-.61538461c.3333333.06837607.7333333.47863248.7333333.88888889z" fill="#cbdbf0"/><path d="m52.8666667 19.1452991c-.0666667 0-.1333334 0-.2 0-.1333334-.6153846-.6666667-1.2307692-1.2666667-1.3675213-.1333333 0-.2666667 0-.4 0-.3333333-.4102564-.8-.7521368-1.3333333-.8205128-.9333334-.1367522-1.6666667.4102564-1.8 1.2991453-.4.1367521-.7333334.5470085-.7333334 1.0940171 0 .7521367.6 1.5042735 1.4 1.6410256.4666667.0683761 3.7333334.6837607 4.3333334.7521367.7333333.1367522 1.3333333-.3418803 1.3333333-1.0940171 0-.7521367-.6-1.3675213-1.3333333-1.5042735z" fill="#f6fafe"/><path d="m12.6 14.8376068c-.6.5470086-1.6.3418804-2.2-.4102564-.6-.7521367-.6-1.7777778 0-2.2564102.3333333-.2735043.6666667-.3418804 1.1333333-.2735043l.8666667.1367521-1.1333333.957265.6666666.8205128 2.3333334-1.982906-2.3333334-2.80341877-.6666666.54700854 1.1333333 1.36752133-.8666667-.1367521c-.6666666-.1367521-1.3333333 0-1.79999997.4102564-1 .8205128-1 2.4615385 0 3.6923077.46666667.6153846 1.13333337.957265 1.79999997 1.0940171.6666667.1367521 1.3333334 0 1.8-.4102564.4666667-.4102564.7333334-1.025641.7333334-1.7094017l-1-.2051282c0 .4786325-.2.8888889-.4666667 1.1623931z" fill="url(#d)"/><path d="m71.8666667 23.7264957c-.1333334 0-.2 0-.3333334 0-.2-1.025641-1-1.9145299-2.0666666-2.1196581-.2-.0683761-.4-.0683761-.6 0-.5333334-.6837607-1.2666667-1.1623932-2.0666667-1.2991453-1.4666667-.2735043-2.6666667.6153846-2.8666667 2.0512821-.6666666.2735042-1.1333333.8888888-1.1333333 1.7777777 0 1.2307693 1 2.3931624 2.2 2.6666667.6666667.1367521 5.8666667 1.0940171 6.8666667 1.2307692 1.1333333.2051282 2.0666666-.5470085 2.0666666-1.7777777 0-1.1623932-.8666666-2.3247864-2.0666666-2.5299146z" fill="#f6fafe"/><g><g transform="translate(34 47.863248)"><path d="m17.8 20.9230769c-.0666667 0-.2 0-.2666667 0l-15.79999997-2.8034188c-.86666666-.1367521-1.53333333-.9572649-1.53333333-1.8461538v-14.70085473c0-.34188034.13333333-.68376068.33333333-.95726495.2-.20512821.53333334-.34188035.86666667-.34188035h.26666667l15.80000003 2.80341881c.8666666.13675213 1.5333333.95726495 1.5333333 1.84615384v14.70085468c0 .3418804-.1333333.6837607-.3333333.957265-.2.2051282-.4666667.3418803-.8666667.3418803z" fill="#fff"/><path d="m1.4.34188034h.26666667l15.80000003 2.80341881c.8.13675213 1.4.88888888 1.4666666 1.7094017v14.70085475c0 .3418803-.1333333.6153846-.3333333.8205128s-.4666667.3418803-.8.3418803c-.0666667 0-.1333333 0-.2666667 0l-15.79999997-2.8034188c-.8-.1367521-1.4-.8888889-1.46666666-1.7094017v-14.7008547c0-.34188034.13333333-.61538461.33333333-.82051282.2-.2051282.53333333-.34188034.8-.34188034zm0-.27350427c-.8 0-1.4.61538461-1.4 1.43589743v14.7008547c0 .957265.73333333 1.8461539 1.66666667 1.982906l15.80000003 2.8034188h.2666666c.8 0 1.4-.6153846 1.4-1.4358974v-14.70085475c0-.95726495-.7333333-1.84615384-1.6666666-1.98290598l-15.80000003-2.8034188c-.06666667 0-.13333334 0-.26666667 0z" fill="#cbdbf0"/></g><g transform="translate(36 50.598291)"><path d="m14.6 8.82051282c0 3.96581198-3.1333333 6.63247868-7 5.94871798-3.86666667-.6837607-7-4.5128205-7-8.47863251 0-3.96581197 3.13333333-6.63247863 7-5.94871795 3.8666667.68376069 7 4.44444445 7 8.47863248z" fill="#e9f0f9"/><g transform="translate(2.666667 3.418803)"><path d="m9.06666667 2.05128205-3.66666667-.68376068-.93333333-.13675214-3.66666667-.68376068c-.4-.06837607-.66666667.2051282-.66666667.61538461v4.92307693c0 .41025641.33333334.75213675.66666667.82051282l3.66666667.68376068.93333333.13675214 3.66666667.68376068c.4.06837607.66666666-.2051282.66666666-.61538462v-4.92307692c0-.34188034-.26666666-.75213675-.66666666-.82051282z" fill="#a3bfe4"/><path d="m4 2.94017094-.46666667-.06837607-2.13333333-.41025641c-.2-.06837607-.4.13675214-.4.34188034v2.87179488c0 .2051282.2.47863247.4.47863247l2.13333333.41025641.53333334.06837607h-.06666667c.2.06837607.4-.13675213.4-.34188034v-2.87179487c0-.20512821-.2-.47863248-.4-.47863248z" fill="#fff"/><g fill="#5e88c6"><path d="m8.66666667 4.71794872-3.13333334-.54700855c-.06666666 0-.13333333-.06837607-.13333333-.2051282v-.34188035c0-.06837606.06666667-.13675213.13333333-.13675213l3.13333334.54700854c.06666666 0 .13333333.06837607.13333333.20512821v.34188034c.06666667.13675214 0 .20512821-.13333333.13675214z"/><path d="m8.66666667 5.74358974-3.13333334-.54700854c-.06666666 0-.13333333-.06837607-.13333333-.20512821v-.34188034c0-.06837607.06666667-.13675214.13333333-.13675214l3.13333334.54700855c.06666666 0 .13333333.06837607.13333333.2051282v.34188035c.06666667.06837607 0 .13675213-.13333333.13675213z"/><path d="m7.33333333 6.42735043-1.73333333-.34188034c-.06666667 0-.13333333-.06837607-.13333333-.20512821v-.34188034c0-.06837607.06666666-.13675214.13333333-.13675214l1.73333333.34188034c.06666667 0 .13333334.06837607.13333334.20512821v.34188034c0 .06837607-.06666667.13675214-.13333334.13675214z"/><path d="m6.33333333.41025641v1.36752137c0 .41025641-.33333333.68376068-.66666666.61538461l-1.2-.2051282c-.4-.06837607-.66666667-.47863248-.66666667-.82051282v-1.36752137z"/></g><g transform="translate(1.333333)"><path d="m2.33333333 6.15384615-1.73333333-.34188034c-.06666667 0-.13333333-.06837607-.13333333-.2051282v-1.0940171c0-.06837607.06666666-.13675213.13333333-.13675213l1.73333333.34188034c.06666667 0 .13333334.06837607.13333334.2051282v1.0940171c0 .06837607-.06666667.13675213-.13333334.13675213z" fill="#5e88c6"/><path d="m1.93333333 3.76068376c0 .27350427-.26666666.47863248-.53333333.41025641s-.53333333-.34188034-.53333333-.61538461c0-.27350428.26666666-.47863248.53333333-.41025641.33333333 0 .53333333.27350427.53333333.61538461z" fill="#5e88c6"/><path d="m4.2 1.2991453c0 .27350427-.26666667.47863248-.53333333.41025641-.26666667-.06837607-.53333334-.34188034-.53333334-.61538462 0-.27350427.26666667-.47863247.53333334-.41025641.26666666.06837607.53333333.34188035.53333333.61538462z" fill="#fff"/></g></g></g></g><g><g transform="translate(8 21.880342)"><path d="m18.2 20.9230769c-.0666667 0-.2 0-.2666667 0l-15.79999997-2.8034188c-.86666666-.1367521-1.53333333-.9572649-1.53333333-1.8461538v-14.70085473c0-.34188034.13333333-.68376068.33333333-.95726495.2-.20512821.53333334-.34188035.86666667-.34188035h.26666667l15.80000003 2.80341881c.8666666.13675213 1.5333333.95726495 1.5333333 1.84615384v14.70085468c0 .3418804-.1333333.6837607-.3333333.957265-.2666667.2735043-.5333334.3418803-.8666667.3418803z" fill="#fff"/><path d="m1.73333333.41025641h.26666667l15.8 2.8034188c.8.13675214 1.4.88888889 1.4666667 1.70940171v14.70085468c0 .3418804-.1333334.6153846-.3333334.8205128s-.4666666.3418804-.8.3418804c-.0666666 0-.1333333 0-.2666666 0l-15.80000003-2.8034188c-.8-.1367522-1.4-.8888889-1.46666667-1.7094017v-14.70085473c0-.34188034.13333333-.61538461.33333333-.82051282.26666667-.2051282.53333334-.34188034.8-.34188034zm0-.27350427c-.8 0-1.4.61538461-1.4 1.43589743v14.70085473c0 .9572649.73333334 1.8461538 1.66666667 1.982906l15.8 2.8034188h.2666667c.8 0 1.4-.6153847 1.4-1.4358975v-14.70085468c0-.95726495-.7333334-1.84615384-1.6666667-1.98290598l-15.8-2.8034188c-.06666667 0-.13333333 0-.26666667 0z" fill="#cbdbf0"/></g><g transform="translate(10.666667 25.299145)"><path d="m14.2 8.61538462c0 3.96581198-3.1333333 6.63247858-7 5.94871798-3.86666667-.6837607-7-4.5128205-7-8.47863251 0-3.96581197 3.13333333-6.63247864 7-5.94871795 3.8666667.68376068 7 4.44444444 7 8.47863248z" fill="#dbf1f8"/><g transform="translate(2.666667 2.051282)"><path d="m4.93333333 1.84615385c-1.06666666-1.2991453-2.8-1.57264958-3.8-.68376069-1 .88888889-1.06666666 2.66666667 0 3.8974359 1 1.23076923 2.6 1.57264957 3.66666667.82051282l2.53333333 3.00854701c.06666667.13675214.26666667.13675214.33333334.06837607.06666666-.06837607.06666666-.27350428 0-.34188034l-2.53333334-3.00854701c.86666667-.95726496.8-2.52991453-.2-3.76068376zm-.26666666 3.55555555c-.86666667.75213675-2.33333334.47863248-3.26666667-.61538461-.86666667-1.0940171-.86666667-2.5982906 0-3.35042735.86666667-.75213676 2.33333333-.47863248 3.26666667.61538461.86666666 1.0940171.86666666 2.5982906 0 3.35042735z" fill="#24a8af" stroke="#24a8af" stroke-width=".5023"/><path d="m8.53333333 10.0512821c-.26666666.2735042-.73333333.1367521-1.06666666-.20512825l-2.2-2.66666667c-.26666667-.34188034-.26666667-.82051282 0-1.09401709.26666666-.27350428.73333333-.13675214 1.06666666.2051282l2.2 2.66666667c.26666667.41025641.26666667.88888889 0 1.09401714z" fill="#39c1d2"/></g></g></g><g><g transform="translate(34 26.666667)"><path d="m17.8 20.7863248c-.0666667 0-.2 0-.2666667 0l-15.79999997-2.8034188c-.86666666-.1367522-1.53333333-.957265-1.53333333-1.8461539v-14.70085466c0-.34188035.13333333-.68376069.33333333-.95726496.2-.20512821.53333334-.34188034.86666667-.34188034h.26666667l15.80000003 2.8034188c.8666666.13675214 1.5333333.95726496 1.5333333 1.84615385v14.70085471c0 .3418803-.1333333.6837607-.3333333.9572649-.2.2051282-.4666667.3418804-.8666667.3418804z" fill="#fff"/><path d="m1.4.27350427h.26666667l15.80000003 2.80341881c.8.13675213 1.4.88888889 1.4666666 1.70940171v14.70085471c0 .3418803-.1333333.6153846-.3333333.8205128s-.4666667.3418803-.8.3418803c-.0666667 0-.1333333 0-.2666667 0l-15.79999997-2.8034188c-.8-.1367521-1.4-.8888888-1.46666666-1.7094017v-14.70085466c0-.34188035.13333333-.61538462.33333333-.82051282.2-.20512821.53333333-.34188035.8-.34188035zm0-.27350427c-.8 0-1.4.61538462-1.4 1.43589744v14.70085466c0 .957265.73333333 1.8461539 1.66666667 1.982906l15.80000003 2.8034188h.2666666c.8 0 1.4-.6153846 1.4-1.4358974v-14.70085471c0-.95726496-.7333333-1.84615385-1.6666666-1.98290599l-15.80000003-2.8034188c-.06666667 0-.13333334 0-.26666667 0z" fill="#cbdbf0"/></g><g transform="translate(36.666667 29.40171)"><path d="m14.0666667 9.16239316c0 3.96581194-3.1333334 6.63247864-7.00000003 5.94871794-3.86666667-.6837607-7-4.5128205-7-8.47863247 0-3.96581196 3.13333333-6.63247863 7-5.94871795 3.80000003.75213676 7.00000003 4.51282052 7.00000003 8.47863248z" fill="#dcefe7"/><g transform="translate(2 4.102564)"><path d="m9.2 7.04273504-7.66666667-.13675213c-.2 0-.4-.20512821-.4-.41025641l-.86666666-5.60683761c0-.20512821.13333333-.41025641.33333333-.41025641l7.66666667.13675214c.2 0 .4.2051282.4.41025641l.86666666 5.6068376c0 .20512821-.13333333.41025641-.33333333.41025641z" fill="#43ba83"/><path d="m9.4 8.27350427-7.73333333-1.36752136c-.2-.06837607-.4-.20512821-.4-.47863248v-5.47008547c0-.20512821.2-.34188034.4-.34188034l7.73333333 1.36752136c.2.06837607.4.20512821.4.47863248v5.47008547c-.06666667.20512821-.2.34188034-.4.34188034z" fill="#5dbf8d"/><g fill="#43ba83" transform="translate(5.333333 3.418803)"><path d="m3.46666667 1.16239316-2.73333334-.47863248c-.06666666 0-.13333333-.06837606-.13333333-.13675213v-.27350428c0-.06837606.06666667-.13675213.13333333-.13675213l2.73333334.47863248c.06666666 0 .13333333.06837606.13333333.13675213v.27350428c0 .06837606-.06666667.13675213-.13333333.13675213z"/><path d="m3.46666667 2.05128205-2.73333334-.47863248c-.06666666 0-.13333333-.06837607-.13333333-.13675213v-.27350428c0-.06837607.06666667-.13675213.13333333-.13675213l2.73333334.47863247c.06666666 0 .13333333.06837607.13333333.13675214v.27350427c0 .06837607-.06666667.13675214-.13333333.13675214z"/><path d="m2.26666667 2.66666667-1.53333334-.27350428c-.06666666 0-.13333333-.06837607-.13333333-.13675213v-.27350428c0-.06837607.06666667-.13675213.13333333-.13675213l1.53333334.27350427c.06666666 0 .13333333.06837607.13333333.13675214v.27350427c0 .06837607-.06666667.13675214-.13333333.13675214z"/></g><path d="m5.26666667 4.51282051c0 .88888889-.73333334 1.50427351-1.6 1.2991453-.86666667-.2051282-1.6-1.02564102-1.6-1.91452991s.73333333-1.50427351 1.6-1.2991453c.86666666.2051282 1.6 1.02564102 1.6 1.91452991z" fill="#fff"/><path d="m4.66666667 3.76068376-.26666667-.27350427c-.06666667-.06837607-.13333333-.06837607-.2 0l-.86666667.88888889-.33333333-.34188035c-.06666667-.06837606-.13333333-.06837606-.2 0l-.26666667.27350428c-.06666666.06837607-.06666666.13675213 0 .2051282l.4.47863248.26666667.27350427c.06666667.06837607.13333333.06837607.2 0l1.2-1.16239316c.13333333-.13675213.13333333-.27350427.06666667-.34188034z" fill="#43ba83"/></g></g></g><g><g transform="translate(8 43.076923)"><path d="m18.2 21.0598291c-.0666667 0-.2 0-.2666667 0l-15.79999997-2.8034188c-.86666666-.1367522-1.53333333-.957265-1.53333333-1.8461539v-14.70085469c0-.34188034.13333333-.68376068.33333333-.95726496.2-.2051282.53333334-.34188034.86666667-.34188034h.26666667l15.80000003 2.8034188c.8666666.13675214 1.5333333.95726496 1.5333333 1.84615385v14.70085474c0 .3418803-.1333333.6837606-.3333333.9572649-.2666667.2051282-.5333334.3418804-.8666667.3418804z" fill="#fff"/><path d="m1.73333333.47863248h.26666667l15.8 2.8034188c.8.13675214 1.4.88888889 1.4666667 1.70940171v14.70085471c0 .3418803-.1333334.6153846-.3333334.8205128s-.4666666.3418804-.8.3418804c-.0666666 0-.1333333 0-.2666666 0l-15.80000003-2.8034188c-.8-.1367522-1.4-.8888889-1.46666667-1.7094018v-14.70085466c0-.34188034.13333333-.61538461.33333333-.82051282.26666667-.2051282.53333334-.34188034.8-.34188034zm0-.27350427c-.8 0-1.4.61538461-1.4 1.43589743v14.70085466c0 .957265.73333334 1.8461539 1.66666667 1.982906l15.8 2.8034188h.2666667c.8 0 1.4-.6153846 1.4-1.4358974v-14.70085471c0-.95726496-.7333334-1.84615384-1.6666667-1.98290598l-15.8-2.8034188c-.06666667 0-.13333333 0-.26666667 0z" fill="#cbdbf0"/></g><g transform="translate(10.666667 45.811966)"><path d="m14.2 8.95726496c0 3.96581194-3.1333333 6.63247864-7 5.94871794-3.86666667-.6837607-7-4.5128205-7-8.47863247s3.13333333-6.63247864 7-5.94871795c3.8666667.68376068 7 4.44444444 7 8.47863248z" fill="#fff4d1"/><g transform="translate(4 2.051282)"><path d="m.46666667.34188034v8.47863248l7.6 1.36752138zm1.46666666 3.8974359 3.2 4.17094017-3.2-.61538462z" fill="#d88b28"/><g fill="#fde1d5" transform="translate(0 .683761)"><path d="m.98103704 7.38461538-.49051852-.06837606s-.07007408 0-.07007408-.06837607 0-.06837607.07007408 0l.49051852.06837607c.07007407 0 .07007407.06837606 0 .06837606.07007407 0 .07007407.06837607 0 0z"/><path d="m.98103704 6.90598291-.49051852-.06837607s-.07007408 0-.07007408-.06837607 0-.06837607.07007408 0l.49051852.06837607c.07007407 0 .07007407 0 0 .06837607.07007407 0 .07007407 0 0 0z"/><path d="m.98103704 6.35897436-.49051852-.06837607s-.07007408 0-.07007408-.06837607c0 0 0-.06837607.07007408 0l.49051852.06837607c.07007407 0 .07007407 0 0 .06837607.07007407 0 .07007407 0 0 0z"/><path d="m.77081482 5.81196581-.2802963-.06837607s-.07007408 0-.07007408-.06837606c0 0 0-.06837607.07007408 0l.2802963.06837606c.07007407 0 .07007407 0 0 .06837607.07007407 0 .07007407 0 0 0z"/><path d="m.98103704 5.33333333-.49051852-.06837607s-.07007408 0-.07007408-.06837606c0-.06837607 0-.06837607.07007408 0l.49051852.06837606c.07007407-.06837606.07007407 0 0 .06837607.07007407-.06837607.07007407 0 0 0z"/><path d="m.98103704 4.78632479-.49051852-.06837607s-.07007408 0-.07007408-.06837607c0 0 0-.06837607.07007408 0l.49051852.06837607c.07007407 0 .07007407 0 0 .06837607.07007407 0 .07007407 0 0 0z"/><path d="m.98103704 4.23931624-.49051852-.06837607s-.07007408 0-.07007408-.06837607c0 0 0-.06837607.07007408 0l.49051852.06837607c.07007407 0 .07007407 0 0 .06837607.07007407 0 .07007407 0 0 0z"/><path d="m.77081482 3.69230769-.2802963-.06837607s-.07007408 0-.07007408-.06837606c0-.06837607 0-.06837607.07007408 0l.2802963.06837606c.07007407 0 .07007407 0 0 .06837607.07007407 0 .07007407 0 0 0z"/><path d="m.98103704 3.21367521-.49051852-.06837606s-.07007408 0-.07007408-.06837607 0-.06837607.07007408 0l.49051852.06837607c.07007407 0 .07007407 0 0 .06837606.07007407 0 .07007407 0 0 0z"/><path d="m.98103704 2.66666667-.49051852-.06837607s-.07007408 0-.07007408-.06837607c0 0 0-.06837607.07007408 0l.49051852.06837607c.07007407 0 .07007407 0 0 .06837607.07007407 0 .07007407 0 0 0z"/><path d="m.98103704 2.11965812-.49051852-.06837607s-.07007408 0-.07007408-.06837607c0 0 0-.06837607.07007408 0l.49051852.06837607c.07007407 0 .07007407.06837607 0 .06837607.07007407 0 .07007407 0 0 0z"/><path d="m.77081482 1.57264957-.2802963-.06837607s-.07007408 0-.07007408-.06837606c0-.06837607 0-.06837607.07007408 0l.2802963.06837606c.07007407 0 .07007407 0 0 .06837607.07007407 0 .07007407 0 0 0z"/><path d="m.98103704 1.09401709-.49051852-.06837606s-.07007408 0-.07007408-.06837607 0-.06837607.07007408 0l.49051852.06837607c.07007407 0 .07007407 0 0 .06837606.07007407 0 .07007407 0 0 0z"/></g></g></g></g><g transform="translate(58.666667 51.965812)"><path d="m17.8666667 21.2649573c-.0666667 0-.2 0-.2666667 0l-15.8-2.8034188c-.86666667-.1367522-1.53333333-.957265-1.53333333-1.8461539v-14.70085469c0-.34188034.13333333-.68376068.33333333-.95726495.2-.20512821.53333333-.34188034.86666667-.34188034h.26666666l15.79999997 2.8034188c.8666667.13675214 1.5333334.95726496 1.5333334 1.84615384v14.70085474c0 .3418803-.1333334.6837606-.3333334.9572649-.2.2051282-.5333333.3418804-.8666666.3418804z" fill="#fff"/><path d="m1.46666667.75213675h.26666666l15.79999997 2.80341881c.8.13675213 1.4.88888888 1.4666667 1.7094017v14.70085474c0 .3418803-.1333333.6153846-.3333333.8205128s-.4666667.3418803-.8.3418803c-.0666667 0-.1333334 0-.2666667 0l-15.8-2.8034188c-.8-.1367521-1.4-.8888889-1.46666667-1.7094017v-14.70085469c0-.34188034.13333334-.61538461.33333334-.82051282.2-.27350427.46666666-.34188034.8-.34188034zm0-.34188034c-.8 0-1.4.61538462-1.4 1.43589744v14.70085465c0 .957265.73333333 1.8461539 1.66666666 1.982906l15.79999997 2.8034188h.2666667c.8 0 1.4-.6153846 1.4-1.4358974v-14.7008547c0-.95726496-.7333333-1.84615385-1.6666667-1.98290599l-15.79999997-2.8034188c-.06666666.06837607-.2 0-.26666666 0z" fill="#cbdbf0"/></g></g><g transform="translate(60.666667 55.384615)"><path d="m14.6 8.82051282c0 3.96581198-3.1333333 6.63247868-7 5.94871798-3.86666667-.6837607-7-4.5128205-7-8.47863251 0-3.96581197 3.13333333-6.63247863 7-5.94871795 3.8666667.75213675 7 4.51282051 7 8.47863248z" fill="#fdddd7" fill-rule="nonzero"/><g transform="translate(3.333333 2.735043)"><path d="m4.33333333.06837607c-.2 0-3.86666666.95726496-3.86666666 1.16239316v2.73504274c0 3.82905982 3.66666666 5.6068376 3.66666666 5.6068376h.06666667.06666667c.06666666 0 3.66666666-.47863248 3.66666666-4.30769231v-2.73504273c.06666667-.13675214-3.4-2.39316239-3.6-2.46153846z" fill="#d28b81" fill-rule="nonzero"/><g stroke="#fdddd7" stroke-linecap="round" stroke-width=".2783" transform="translate(2 2.735043)"><path d="m2.26666667 2.11965812c.13333333.82051282-.06666667 1.5042735-.53333334 1.98290598"/><path d="m1.73333333 2.18803419c-.06666666-.34188034.13333334-.54700855.4-.54700855.26666667 0 .53333334.20512821.6.54700855.13333334.82051282 0 1.57264957-.46666666 2.11965812"/><path d="m1.8 2.52991453c0 .54700855-.2.95726496-.6 1.2991453"/><path d="m3.33333333 3.28205128c-.06666666.34188034-.13333333.68376069-.33333333 1.02564103"/><path d="m3.33333333 2.94017094c0-.27350427 0-.54700855-.06666666-.82051282-.13333334-.61538462-.66666667-1.09401709-1.2-1.02564103-.53333334 0-.93333334.47863248-.8 1.0940171.06666666.54700855-.06666667.95726496-.46666667 1.23076923"/><path d="m2.8.75213675c.46666667.27350428.86666667.75213675.93333333 1.36752137.13333334.61538462.06666667 1.23076923-.06666666 1.77777778"/><path d="m.73333333 1.5042735c.13333334-.54700854.6-.95726495 1.2-.95726495.2 0 .4 0 .53333334.06837607"/><path d="m.73333333 1.84615385v.34188034c.06666667.27350427-.06666666.54700855-.26666666.75213675"/><path d="m4.33333333 2.5982906c0-.13675214 0-.34188034-.06666666-.47863248-.2-1.16239316-1.33333334-2.11965812-2.46666667-2.11965812-.26666667 0-.6.06837607-.8.20512821"/><path d="m.8.41025641c-.46666667.41025641-.73333333 1.09401709-.6 1.84615385v.06837606"/></g></g></g><g transform="translate(58.666667 30.769231)"><g fill-rule="nonzero"><g><path d="m17.5333333 20.991453c-.0666666 0-.2 0-.2666666 0l-15.53333337-2.8034188c-.86666666-.1367521-1.53333333-.957265-1.53333333-1.8461539v-14.49572645c0-.75213676.53333333-1.2991453 1.2-1.2991453h.26666667l15.53333333 2.8034188c.8666667.13675214 1.5333333.95726496 1.5333333 1.84615385v14.4957265c.0666667.7521367-.4666666 1.2991453-1.2 1.2991453z" fill="#fff"/><path d="m1.4.75213675h.26666667l15.53333333 2.80341881c.8.13675213 1.4.88888888 1.4 1.7094017v14.49572654c0 .6837606-.4666667 1.0940171-1.0666667 1.0940171-.0666666 0-.1333333 0-.2666666 0l-15.53333337-2.8034188c-.8-.1367522-1.4-.8888889-1.4-1.7094018v-14.49572645c0-.61538462.46666667-1.0940171 1.06666667-1.0940171zm0-.27350427c-.73333333 0-1.33333333.54700855-1.33333333 1.43589743v14.49572649c0 .957265.73333333 1.7777778 1.66666666 1.982906l15.53333337 2.8034188h.2666666c.7333334 0 1.3333334-.5470086 1.3333334-1.4358974v-14.49572654c0-.95726495-.7333334-1.77777777-1.6666667-1.98290598l-15.53333333-2.8034188c-.06666667 0-.13333334 0-.26666667 0z" fill="#cbdbf0"/></g><path d="m16.6 12.1709402c0 3.8974359-3.0666667 6.4957265-6.86666667 5.8803419-3.8-.6837607-6.93333333-4.3760684-6.93333333-8.27350432 0-3.8974359 3.06666667-6.4957265 6.86666667-5.88034188 3.86666663.68376068 6.93333333 4.37606837 6.93333333 8.2735043z" fill="#fde7eb"/><g fill="#f394a6" transform="translate(6 6.837607)"><path d="m2.53333333 7.45299145-2.06666666-.34188034v-2.73504273l2.06666666.34188034z"/><path d="m4.8 7.86324786-2.06666667-.34188034v-5.47008547l2.06666667.41025641z"/><path d="m7.13333333 8.27350427-2.06666666-.34188034-.06666667-7.79487179 2.13333333.41025641z"/></g></g><path d="m5.8 13.948718 8 1.435898" stroke="#cb8c99" stroke-linecap="round" stroke-width=".4964"/><g transform="translate(5.333333 8.205128)"><path d="m.33333333 4.51282051 1.4-1.5042735 1.6.82051282 1.73333334-1.77777778 1.46666666.41025641 2-1.70940171" stroke="#ca4b63" stroke-width=".3475"/><g fill="#ca4b63" fill-rule="nonzero"><path d="m5.33333333 2.05128205c0 .20512821-.13333333.27350427-.33333333.27350427s-.33333333-.2051282-.33333333-.34188034c0-.13675213.13333333-.27350427.33333333-.27350427s.33333333.2051282.33333333.34188034z"/><path d="m3.66666667 3.8974359c0 .2051282-.13333334.27350427-.33333334.27350427s-.33333333-.2051282-.33333333-.34188034c0-.20512821.13333333-.27350427.33333333-.27350427s.33333334.13675213.33333334.34188034z"/><path d="m2.06666667 3.07692308c0 .2051282-.13333334.27350427-.33333334.27350427s-.33333333-.2051282-.33333333-.34188034c0-.20512821.13333333-.27350427.33333333-.27350427s.33333334.13675213.33333334.34188034z"/><path d="m.66666667 4.58119658c0 .20512821-.13333334.27350427-.33333334.27350427s-.33333333-.2051282-.33333333-.34188034c0-.2051282.13333333-.27350427.33333333-.27350427s.33333334.2051282.33333334.34188034z"/><path d="m6.86666667 2.52991453c0 .20512821-.13333334.27350427-.33333334.27350427s-.33333333-.2051282-.33333333-.34188034.13333333-.27350427.33333333-.27350427.33333334.13675213.33333334.34188034z"/><path d="m8.86666667.82051282c0 .20512821-.13333334.27350427-.33333334.27350427s-.33333333-.2051282-.33333333-.34188034c0-.13675213.13333333-.27350427.33333333-.27350427s.33333334.2051282.33333334.34188034z"/></g></g></g></g><path d="m355.857296 77.6633987c-8.711919 8.7004357-22.875468 8.7004357-31.587387 0s-8.711919-22.8453159 0-31.5457516c4.275788-4.2701525 9.941208-6.5653595 16.087654-6.5119826h12.346339l-16.247996 16.2265795 9.727418 9.714597 32.816676-32.7734205-32.816676-32.7734205-9.727418 9.71459695 16.194548 16.17320265h-12.239444c-.106895 0-.213789 0-.374131 0-9.620524 0-18.706574 3.7363834-25.494388 10.5686274-14.056655 14.0381264-14.056655 36.9368192 0 50.9749455 7.05505 7.0457517 16.301443 10.5686275 25.494388 10.5686275 9.246392 0 18.492784-3.5228758 25.547835-10.5686275 6.841261-6.832244 10.582576-15.8529411 10.582576-25.5141612h-13.73597c-.053447 5.9248366-2.405131 11.5294118-6.574024 15.7461874z" fill="url(#e)" fill-rule="nonzero"/><path d="m282 47.4834239-94.530504-3.4774148c-4.644562-.1511919-8.469496 2.5702631-8.469496 5.9468833v220.0471076" opacity=".436826" stroke="url(#g)" stroke-linecap="round" stroke-width="2.88"/><path d="m457.178492 115 .8205-54.9584965c.068375-3.1574001-3.350374-5.7721221-7.726374-5.9201253l-56.272618-2.1213782" opacity=".529878" stroke="url(#h)" stroke-linecap="round" stroke-width="2.88"/><g fill-rule="nonzero" transform="translate(547 282)"><path d="m82.6083333 58.5333333-77.01166663 11.0666667c-1.16166667-.2666667-2.05-1.3333333-2.05-2.4666667l-.13666667-55.0666666c0-1.1333334.88833333-1.8 2.05-1.5333334l77.08-10.26666663c1.1616667.26666666 2.05 1.33333333 2.05 2.46666666v53.19999997c.0683333 1.0666667-.82 2.8666667-1.9816667 2.6z" fill="#f7f8f8"/><path d="m2.52833333 72.1333333c-.615 0-1.09333333-.2-1.435-.6-.34166666-.3333333-.54666666-.8666666-.54666666-1.4666666.205-13.6-.13666667-54.6666667-.13666667-55.0666667 0-1.1333333.47833333-1.6666667 1.77666667-1.8 20.15833333-2.6666667 77.55833333-9.53333333 78.17333333-9.6h.3416667c.5466666 0 .8883333.2.8883333 1.13333333 0 .4-.0683333 40.73333337 0 54.26666667 0 1.0666667-.205 2.1333333-1.845 2.3333333-11.4116667 1.4666667-28.6316667 4-45.305 6.4-11.685 1.6666667-22.755 3.2666667-31.16 4.4666667-.27333333-.0666667-.47833333-.0666667-.75166667-.0666667z" fill="#dbe4e4"/><path d="m5.52833333 69.1333333c-.615 0-1.09333333-.2-1.435-.6-.34166666-.3333333-.54666666-.8666666-.54666666-1.4666666.205-13.6-.13666667-54.6666667-.13666667-55.0666667 0-1.1333333.47833333-1.6666667 1.77666667-1.8 20.15833333-2.66666667 77.55833333-9.53333333 78.17333333-9.6h.3416667c.5466666 0 .8883333.2.8883333 1.13333333 0 .4-.0683333 40.73333337 0 54.26666667 0 1.0666667-.205 2.1333333-1.845 2.3333333-11.4116667 1.4666667-28.6316667 4-45.305 6.4-11.685 1.6666667-22.755 3.2666667-31.16 4.4666667-.27333333-.0666667-.47833333-.0666667-.75166667-.0666667z" fill="#f7f8f8"/><g transform="translate(9.15 41.333333)"><path d="m.75166667 23.4c-.205 0-.41-.2-.41-.4v-16.2c0-.2.13666666-.33333333.34166666-.33333333 0 0 46.26166667-6.2 46.26166667-6.2.2733333 0 .4783333.2.4783333.4v16.20000003c0 .2-.1366666.3333333-.3416666.3333333z" fill="#fff"/><path d="m46.945.33333333c.1366667 0 .2733333.13333334.2733333.26666667v16.2c0 .1333333-.0683333.2-.205.2l-46.26166663 6.2s0 0-.06833334 0c-.13666666 0-.27333333-.1333333-.27333333-.2666667v-16.19999997c0-.13333333.06833333-.2.205-.2zm0-.26666666h-.0683333l-46.2616667 6.2c-.27333333.06666666-.41.26666666-.41.46666666v16.19999997c0 .3333334.27333333.5333334.54666667.5333334h.06833333l46.2616667-6.2c.2733333-.0666667.41-.2666667.41-.4666667v-16.13333333c0-.33333334-.2733334-.6-.5466667-.6z" fill="#cbdbf0"/></g><g transform="translate(9.15 20)"><path d="m.88833333 25.2666667c-.205 0-.41-.2-.41-.4v-15.13333337c0-.2.13666667-.33333333.34166667-.33333333 0 0 69.085-9.2 69.085-9.2.2733333 0 .4783333.2.4783333.4v15.1333333c0 .2-.1366666.3333334-.3416666.3333334z" fill="#fff"/><path d="m69.905.26666667c.1366667 0 .2733333.13333333.2733333.26666666v15.13333337c0 .1333333-.0683333.2-.205.2l-69.08499997 9.2s0 0-.06833333 0c-.13666667 0-.27333333-.1333334-.27333333-.2666667v-15.13333333c0-.13333334.06833333-.2.205-.2l69.15333333-9.2c-.0683333 0 0 0 0 0zm0-.26666667h-.0683333l-69.08500003 9.2c-.27333334.06666667-.41.26666667-.41.46666667v15.13333333c0 .3333333.27333333.5333333.54666666.5333333h.06833334l69.08500003-9.2c.2733333-.0666666.41-.2666666.41-.4666666v-15.13333337c0-.26666666-.2733334-.53333333-.5466667-.53333333z" fill="#cbdbf0"/></g><g transform="translate(58.35 38)"><path d="m.88833333 20.1333333c-.205 0-.41-.2-.41-.4v-16.19999997c0-.2.13666667-.33333333.34166667-.33333333 0 0 20.0216667-2.73333333 20.0216667-2.73333333.2733333 0 .4783333.2.4783333.4v16.20000003c0 .2-.1366667.3333333-.3416667.3333333z" fill="#fff"/><path d="m20.8416667.6c.1366666 0 .2733333.13333333.2733333.26666667v16.20000003c0 .1333333-.0683333.2-.205.2l-20.02166667 2.7333333s0 0-.06833333 0c-.13666667 0-.27333333-.1333333-.27333333-.2666667v-16.19999997c0-.13333333.06833333-.2.205-.2l20.09000003-2.73333333c-.0683334 0 0 0 0 0zm0-.26666667h-.0683334l-20.02166663 2.73333334c-.27333334.06666666-.41.26666666-.41.46666666v16.19999997c0 .3333334.27333333.5333334.54666666.5333334h.06833334l20.02166663-2.7333334c.2733334-.0666666.41-.2666666.41-.4666666v-16.20000003c0-.33333334-.2733333-.53333334-.5466666-.53333334z" fill="#cbdbf0"/></g><path d="m3.68333333 12.4666667v13.8l80.76999997-10.8-.2733333-14.13333337c.0683333.06666667-80.49666667 10.06666667-80.49666667 11.13333337z" fill="#173963"/><path d="m83.8383333.53333333s-57.605 7-78.03666663 9.59999997c-1.23.1333334-2.32333334.8-2.32333334 2v1.9333334l81.17999997-10.00000003v-1.53333334c0-1.2.41-1.73333333-.82-2z" fill="#173963"/><g transform="translate(11.2 30)"><path d="m.478333 11.333333 66.215-8.666666" fill="#fff"/><path d="m.88833333 12.0666667v-3.13333337l64.84833337-8.46666666v3.06666666z" fill="#7fc9a3"/></g><path d="m57.5983333 36.1333333-45.51 5.9333334v-3.1333334l45.51-5.9333333z" fill="#ffdc7e"/><path d="m36.825 38.8-24.7366667 3.2666667v-3.1333334l24.805-3.2666666z" fill="#f596a7"/><path d="m29.855 34.4666667-17.6983333 2.2666666v-4.6666666l17.7666666-2.3333334z" fill="#eaecee"/><path d="m57.53 11.0666667-48.65333333 6.2.06833333-2.2666667 48.5166667-6.2z" fill="#eaecee"/><path d="m18.1016667 21.6-9.22500003 1.1333333.06833333-1.8 9.1566667-1.1333333z" fill="#2267a7"/><path d="m28.83 20.2666667-8.7466667 1.1333333-.0683333-1.7333333 8.815-1.1333334z" fill="#2267a7"/><path d="m39.2166667 19-8.6783334 1.0666667-.0683333-1.8 8.7466667-1z" fill="#2267a7"/><path d="m18.375 61.0666667-6.0133333.8.0683333-11.1333334 6.15-.8z" fill="#ffdc7e"/><path d="m25.2083333 60.2-6.0816666.8.1366666-7.7333333 6.0816667-.8z" fill="#ffdc7e"/><path d="m31.9733333 59.2-6.0816666.8.0683333-4.9333333 6.15-.8z" fill="#ffdc7e"/><path d="m40.2416667 58.1333333-6.0816667.8.1366667-11.1333333 6.0816666-.8z" fill="#7fc9a3"/><path d="m47.075 57.2666667-6.0816667.8.0683334-7.7333334 6.15-.8z" fill="#7fc9a3"/><path d="m53.84 56.3333333-6.0816667.8.0683334-4.9333333 6.0816666-.8z" fill="#7fc9a3"/><g fill="#eaecee"><path d="m40.4466667 33.0666667-9.225 1.2v-4.7333334l9.2933333-1.1333333z"/><path d="m65.0466667 45.7333333v-1.5333333l12.095-1.6666667v1.5333334z"/><path d="m65.0466667 49.7333333v-1.5333333l12.095-1.6v1.4666667z"/><path d="m65.0466667 53.7333333v-1.4666666l12.095-1.6666667v1.5333333z"/></g><path d="m63.7483333 45.0666667c0 .7333333-.615 1.3333333-1.3666666 1.4666666-.7516667.0666667-1.3666667-.4-1.3666667-1.1333333s.615-1.3333333 1.3666667-1.4666667c.7516666-.0666666 1.3666666.4666667 1.3666666 1.1333334z" fill="#f596a7"/><path d="m63.7483333 49.1333333c0 .7333334-.615 1.3333334-1.3666666 1.4666667-.7516667.0666667-1.3666667-.4-1.3666667-1.1333333 0-.7333334.615-1.3333334 1.3666667-1.4666667.7516666-.0666667 1.3666666.4 1.3666666 1.1333333z" fill="#ffdc7e"/><path d="m63.7483333 53.1333333c0 .7333334-.615 1.3333334-1.3666666 1.4666667-.7516667.0666667-1.3666667-.4-1.3666667-1.1333333 0-.7333334.615-1.3333334 1.3666667-1.4666667.7516666-.0666667 1.3666666.4 1.3666666 1.1333333z" fill="#7fc9a3"/></g><path d="m702 248.731518c0-1.124514-.489617-1.653697-1.818579-1.785993-20.63388-2.645914-60.362842-6.879377-60.922405-6.945525-.13989 0-.209836 0-.349726 0-.559563 0-.90929.198444-.90929 1.124514 0 .396887.069945 40.416342 0 53.844358 0 1.058365.209836 2.116731 1.888525 2.315175 1.678688.198443 3.00765.396887 4.266666.529183 0 2.182879.699454 9.591439 9.162842 10.18677 0 0-2.378142-2.976654-.979235-9.062257 3.077595.463035 7.064481.992218 14.89836 2.116732 11.960656 1.653696 23.291804 3.241245 31.895082 4.431906.279782.066148.489618.066148.769399.066148.629509 0 1.119126-.198443 1.468853-.595331.349727-.330739.559563-.859922.559563-1.455252-.209836-13.560312.069945-54.307393.069945-54.770428z" fill="#cae8ef" fill-rule="nonzero" opacity=".4"/><path d="m755 281.860125c0-1.141077-.489617-1.678054-1.818579-1.812299-20.63388-2.684886-60.362842-6.980704-60.922405-7.047826-.13989 0-.209836 0-.349726 0-.559563 0-.90929.201366-.90929 1.141077 0 .402733.069945 41.011637 0 54.637435 0 1.073955.209836 2.147909 1.888525 2.349275 3.077595.402733 5.175956.671222 6.994535.939711.279782 6.040994-3.147541 8.927246-3.147541 8.927246 8.88306.201367 10.84153-5.436894 11.261202-7.78617 2.727869.402733 6.365028.939711 12.100547 1.745176 11.960655 1.678054 23.291803 3.288986 31.895082 4.497185.279781.067122.489617.067122.769399.067122.629508 0 1.119125-.201366 1.468852-.604099.349727-.335611.559563-.872588.559563-1.476688-.069945-13.827164.209836-55.174412.209836-55.577145z" fill="#cae8ef" fill-rule="nonzero" opacity=".4"/><path d="m670 336.522397c-.964319-1.028484-1.584238-.771363-2.135278-1.928408-1.308718-3.085453-.413279-5.142421-1.928638-6.042345-4.752715-2.828332-4.477195-3.406854-5.441514-7.32795-.13776-.707083-1.928638.321401-2.755197 2.249809-.27552.642803-.27552 1.349886-.27552 2.185529 0 .514242-.3444.707083-.619919.964204-.55104.578523-1.653119 1.478446-1.790879 2.121249-.137759.642803-.06888.642803.964319 1.221325.61992.321401-1.033199 3.535415.82656 3.985376 1.790878.449962 4.063915 0 4.959354.899924.3444.321401 1.170959 2.121249 1.102079 3.021173-.06888.642802 7.094633-1.349886 7.094633-1.349886z" fill="#e5b48f" fill-rule="nonzero"/><path d="m672.888069 319.196447c2.065271 2.762673.968096 7.277285-.968096 10.039958-.709937 1.010734-.839016 2.695291-1.936191 2.762673-1.097176.067383-1.871652-3.57126-2.000732-7.075138-.064539-1.280264-1.097175-2.223615-2.25889-2.088851-2.968827.336912-7.938386.336912-8.648323-3.369113-.516317-2.695291 1.742573-2.35838 2.581589-2.493144.839017-.134765 2.45251-.673823 3.872384-.87597 3.872383-.539058 5.614955 1.347645 5.808574 1.347645.258159-.067382 2.710669.673823 3.549685 1.75194z" fill="#164a79" fill-rule="nonzero"/><path d="m664.051719 326.655409c-.078737-.912544-.078737-1.901133.078738-2.813677s.6299-1.672997 1.259801-1.825088c.708638-.15209 1.417276.760453 1.574752 1.825088.157475 1.064634-.236213 2.205314-.787376 2.737631s-1.338539.532317-2.047177.152091" fill="#e5b48f" fill-rule="nonzero"/><g fill-rule="nonzero" transform="translate(661 323)"><path d="m8.21428571.05401235c1.85714289.21604938 1.57142858 3.61882716-.64285714 3.34876543-2.71428571-.32407408-.78571428-3.51080247.64285714-3.34876543z" fill="url(#j)"/><path d="m6.42857143 2.86265432c-.07142857.27006173-2.35714286 1.67438272-3.85714286 1.40432099.07142857.32407407.14285714.43209876.14285714.43209876s1.57142858.32407408 4.42857143-1.35030864c.42857143-.32407407-.71428571-.48611111-.71428571-.48611111z" fill="url(#k)"/><path d="m.42857143 4.375c0 .21604938.21428571.43209877.57142857.43209877l1.07142857.05401234c.35714286 0 .64285714-.16203704.71428572-.37808642v-.27006173c0-.21604938-.21428572-.43209876-.57142858-.43209876l-1.07142857-.05401235c-.35714285 0-.64285714.16203704-.71428571.37808642z" fill="url(#l)"/></g><path d="m331.086329 180.99758c.122917-.575708.184376-1.279351.307293-1.599189 1.536468-6.204852 4.79378-6.844528 5.838579-7.100398.92188-.191903 4.916697-1.023481 8.235468 1.343318 1.106256.767611 2.212513 1.663157 2.458348 3.326313.245835 1.919027-.184376 3.518216-.368752 3.902021-.061459 0 0-1.087448-.245835-1.982994-.122917-.447773-.307294-.959513-.553128-1.471254.430211 1.919027.122917 3.390281.122917 3.390281s-.798963-.383806-1.41355-.575708c-1.782303-.639676-4.732322-.703643-4.732322-.703643.061459-1.023481-.184376-1.727124-.676046-2.3668l.061459.063968c-.860422 4.477728-4.547945 2.814572-4.363569 4.733599.307294 4.221858-.92188 10.042906-.983339 10.042906-4.670863-.25587-3.687523-11.00242-3.687523-11.00242z" fill="#173963" fill-rule="nonzero"/><path d="m339 185.36926c-.073001-.953293-.219003-1.906586-.511008-2.780438-.292004-.873852-.803012-1.588822-1.387021-1.588822-.65701 0-1.168017.953293-1.095016 2.065469 0 1.112175.511007 2.144909 1.095016 2.621556.584009.476646 1.31402.397205 1.825028-.158882z" fill="#af7c4e" fill-rule="nonzero"/><g fill-rule="nonzero" transform="translate(127 282)"><g transform="translate(5.346459 62.267394)"><path d="m10.2919333 71.908797s-.0668308 1.5399463.3341537 2.2764424c.4009844.736496 2.004922 4.6867931 2.2054142 6.4945561.2004922 1.7408089-.1336614 2.8120759-1.2029532 3.0798926-.9356303.2008626-5.27962812.9373586-8.01968828-2.2094882-1.60393765-1.807763-1.40344545-3.2138009-1.80442986-4.8876556-.46781515-1.6738547-.86879956-2.3433966-.86879956-3.9502971s.06683073-3.3477093.06683073-3.3477093z" fill="#6e6f72"/><path d="m23.1902652 70.9044842c-1.002461 3.2807552 0 6.0258768-.2004922 7.0971438 0 .2678168.8687996.6695419 2.3390758.6695419 1.4034454 0 1.5371069 0 2.272245-.0669542.1336615 0 .3341537-.1339084.3341537-.2678167 0-.4017252.0668307-1.071267.3341536-.9373587.6683074.2678168 1.9380914 1.2721296 2.9405524 1.6738547 1.002461.4686793 8.8216571.6025877 10.7597484.4017251 1.7375992-.2008625 2.7400602-.2008625 2.6063987-1.071267-.3341536-1.9416714-2.3390757-3.4816177-4.6781515-3.8833428-1.9380913-.3347709-3.4751982-.4686793-4.54449-1.071267-.2673229-.1339084-1.0692917-.6695419-1.269784-.8704044-.6683073-.7364961-1.002461-1.8077631-1.002461-2.142534-.0668307-.4686793-9.1558108-1.9416715-9.8909489.4686793z" fill="#6e6f72"/><g fill="#a8aaad"><path d="m29.4723544.5356335s5.3464588 29.1920256 5.1459666 35.6196276c-.2673229 6.4276019-1.4702762 31.6023763-.6683073 33.6779561 0 0 .8019688.8034502.6683073 1.6069005-.0668307.736496-8.8216571 1.9416714-11.8958709 1.3390837-.3341537-.0669542-.5346459-.4017251-.4678152-.736496.2004923-.7364961.4009845-2.2094882.0668308-3.6824803-.6683074-2.9459843-.4678152-14.662967-.7351381-18.1445847-.8019688-8.570136-1.4034455-13.3238833-1.1361225-16.8724552.2673229-3.5485719-2.539568-29.66070491-2.539568-29.66070491z"/><path d="m17.3091605 12.1856621c.267323-.2678168.7351381-.0669542.6683074.2678167-.4009844 4.9546099-2.0717528 23.9026448-2.539568 27.6520793-.5346459 4.285068-5.88110471 25.7104079-4.1435056 29.5937507 0 0 .3341537.9373586-.0668307 1.7408089-.2004922.4686793-.4009844.8704044-.5346459 1.1382212-.0668307.2008625-.267323.2678167-.4678152.2008625-1.4034454-.4686793-6.61624278-2.0755798-9.2894722-1.5399463-.20049221.0669542-.46781515-.1339084-.46781515-.3347709-.06683074-.7364961-.20049221-2.142534-.20049221-2.6781675 0-.8034502.53464589-2.4103507.06683074-4.1511596-.53464589-1.7408089-.06683074-21.5592483.9356303-26.7816749.86879956-4.5528847 1.00246103-7.4988689 1.00246103-8.1014566 0-.0669542.06683074-.2008626.06683074-.2678168z"/></g></g><path d="m23.1902652 17.9437222s-.1336614 1.5399463.0668308 1.9416714-2.8737216 4.6867931-2.8737216 4.6867931l-6.5494121-5.6241517s.6014766-.6695419.4009844-2.2764424 5.0123051 2.2764424 5.0123051 2.2764424z" fill="#efd8a8"/><path d="m11.2275636 10.3109448c.1336614-.9373586.9356303-.2678167.9356303-.2678167s-.4009844-1.60690052 0-5.49024337c.2673229-3.41466355 10.8265791-4.35202217 11.7622094-1.13822119 1.0692918 3.81638867.8687996 5.42328916.8687996 5.42328916s.6683074-.73649606 1.002461.13390838c.267323.87040443.5346459 3.68248032-.5346459 4.01725122 0 0-.4678151.2008626-.4678151.6695419s-.3341537 2.9459842-.8019688 3.5485719c-.6683074.9373586-2.4059065 2.6781675-4.1435056 3.0129384-.0668308 0-.4009844.0669542-.4678152.0669542-1.8044298 0-3.8093519-1.4060379-4.6781515-2.142534-.6014766-.5356335-1.5371069-2.87903-1.6039376-3.3477093-.0668308-.4686794-.6014766-.5356335-.6014766-.5356335-1.0692918-.2678168-1.4034455-3.0798926-1.269784-3.9502971z" fill="#f9e6b4"/><path d="m24.7942029 11.3822118c.3341537-1.53994629 1.4034454-4.55288471.7351381-6.1597852 0 0 1.8044299-2.47730493.1336615-2.94598424-2.1385836-.60258768-5.814274-2.34339655-8.4875035-1.87471724-2.8068909.46867931-6.6830735 2.34339655-5.9479354 5.95892266.4009844 1.87471724 1.0692917 5.55719752 1.3366147 5.49024332.2004922 0 .8687996-1.071267.6683073-2.54425909-.3341536-2.81207586.1336615-3.68248029.1336615-3.68248029s2.4059065 1.07126699 6.9503965.33477094c1.9380913-.33477094 3.4751983.60258768 3.8761827 2.54425911.2004922.93735862.4678151 2.14253403.4678151 2.81207583 0 .1339084.1336615.1339084.1336615.0669542z" fill="#f89521"/><path d="m12.7646705 19.8853936.6683074.4686793 7.0172272 4.8876557 4.2103363-4.5528848 4.54449 18.4124015 4.3439979 26.7147207s-4.6781515 2.87903-13.7003008 1.6069005c-9.0221493-1.2051754-5.0791359-29.5937508-5.0791359-29.5937508z" fill="#88c6b1"/><path d="m12.7646705 19.8853936s.6683074-1.8747173 1.002461-1.6738547c.3341537.2008626 6.0147662 5.0885182 6.8167351 5.2893808 0 0-2.2722451 2.5442591-2.2054143 4.1511596 0 1.6069005-5.6137818-7.7666857-5.6137818-7.7666857z" fill="#4ea583"/><path d="m22.6556194 27.3173084s.4678151-.9373587.4009844-2.0086257c-.2004922-1.7408088-2.539568-1.7408088-2.539568-1.7408088s-1.7375991 1.1382212-2.004922 3.6824803l1.002461 1.0043128s.6683073.1339083.7351381.3347709c.0668307.2008626-.267323.4686793-.267323.4686793s1.537107 3.0798926 2.7400602 8.3023192c1.0692918 4.7537473 2.4059065 22.0948818 2.6063987 24.30437 0 .2678167.0668307.4686793.2004922.6695418l1.5371069 1.7408089c.267323.2678167.7351381.2678167.9356303-.0669542l1.4702762-2.6781675c.1336615-.2678167.2004922-.5356335.2004922-.8034502-.0668307-2.2094882-1.002461-18.3454473-7.2177194-32.0041015 0 0-.4678152-.2008625-.4678152-.4017251s.6683074-.4686793.6683074-.8034502z" fill="#037a61"/><g transform="translate(3.341537 18.747172)"><path d="m15.3042384 78.8050783c-1.5371069 0-3.1410445-.0669542-4.8118129-.2008626-2.87372164-.2678167-5.07913592-.4017251-6.61624284-.4017251-1.87126059 0-2.0717528.2008625-2.0717528.2008625h-.13366147-.06683074c0-1.6738546.40098442-39.5699246 1.8712606-48.4748314 1.53710692-8.9049069-2.67322942-22.96528624-2.67322942-23.09919461v-.06695419l.06683073-.06695419c.06683074 0 4.41082855-3.14684679 7.15088871-4.48593053.60147662-.33477094 1.1361225-1.071267 1.33661471-1.53994631.06683074-.13390837.13366147-.20086256.26732294-.20086256.06683074 0 .20049221.06695419.26732295.13390837.93563033 1.13822119 5.54695103 7.03018965 7.48504233 10.98048672 2.1385836 4.3520221 5.2796282 23.5009197 4.6113208 34.7492231-.7351381 11.2483034.4009844 30.4641552 1.4702762 31.3345596l.1336615.1339084-.1336615.0669541c0-.1339083-2.6063987.9373587-8.1533498.9373587z" fill="#fff"/><path d="m9.69045666.46867931c.06683073 0 .13366147 0 .13366147.06695419 1.06929177 1.33908374 5.54695107 7.03018965 7.48504237 10.9804867 2.2054143 4.4859305 5.2796281 23.634828 4.6113208 34.6822689-.7351381 11.0474409.3341536 30.4641552 1.5371069 31.4015138 0 0-2.539568 1.071267-8.1533498 1.071267-1.4034454 0-3.0073831-.0669542-4.7449822-.2008626-3.27470602-.3347709-5.34645883-.4017251-6.6162428-.4017251-2.0717528 0-2.13858354.2678168-2.13858354.2678168 0-.4017252.33415368-39.4360163 1.8712606-48.4748315 1.53710691-9.0388153-2.67322943-23.16614879-2.67322943-23.16614879s4.34399782-3.14684679 7.15088871-4.48593053c.66830736-.33477094 1.20295324-1.13822119 1.40344545-1.6069005-.06683074-.06695418.06683073-.13390837.13366147-.13390837zm0-.20086256c-.20049221 0-.33415368.06695419-.40098441.26781675-.20049221.46867931-.7351381 1.20517537-1.33661472 1.5399463-2.80689089 1.33908374-7.1508887 4.48593054-7.21771944 4.48593054l-.13366147.06695419.06683074.13390837c.06683073.13390838 4.21033634 14.1942877 2.67322942 23.0991946s-1.8712606 46.7340226-1.8712606 48.4748315h.26732294.13366148c0 .0669541-.06683074.0669541-.06683074.0669541s.26732294-.2008625 2.00492207-.2008625c1.53710692 0 3.74252119.1339084 6.61624277.4017251 1.6707684.1339084 3.2747061.2008626 4.811813.2008626 5.5469511 0 8.1533498-1.0043128 8.2201805-1.071267l.3341537-.1339084-.267323-.2008626c-1.002461-.8034502-2.2054143-19.5506226-1.4702762-31.2676054.3341537-5.021564-.1336614-12.2526162-1.2029532-19.8853935-1.002461-6.8962813-2.3390757-12.7212956-3.4083675-14.9307838-1.9380913-3.88334283-6.2820892-9.37358617-7.55187313-10.98048666.06683073 0-.06683074-.06695419-.20049221-.06695419z" fill="#d2d3d4"/></g><g transform="translate(23.390757 20.086256)"><path d="m19.9823899 76.2608192c-.8687995-.8704045-3.0073831-1.0043129-4.2103363-1.0043129-.5346459 0-.8687996 0-.8687996 0h-.0668307v-.0669541c-.0668307-.4686794-9.7572874-44.5914887-10.15827181-50.2825946-.26732294-3.950297-1.40344545-8.3692734-2.40590648-12.2526162-.40098441-1.6738547-.80196883-3.21380101-1.13612251-4.55288476-.86879956-4.08420541-.13366147-7.49886896-.06683073-7.83363989 0-.06695419 0-.13390838 0-.13390838s.06683073-.06695418.13366147-.06695418c.53464588 0 3.14104457 1.47299211 4.00984413 2.00862561.9356303.66954187 3.7425212 1.40603793 3.7425212 1.40603793.9356303.66954187.53464588 8.30231917.53464588 9.17272367 3.20787535 30.3302467 4.21033635 33.7449103 5.94793545 39.9046955 3.8093519 13.2569291 4.6781515 23.4339655 4.6781515 23.5009197v.2678167z" fill="#fff"/><path d="m1.26978398.20086256c.46781514 0 3.07421383 1.40603793 3.94301339 2.00862562 1.00246104.66954187 3.7425212 1.40603793 3.7425212 1.40603793.86879956.66954187.40098441 9.10576949.40098441 9.10576949 3.14104462 30.1293842 4.14350562 33.6779561 5.94793542 39.9716497 3.8761827 13.4577916 4.6781515 23.5009197 4.6781515 23.5009197-.8687995-.8704045-3.0742138-1.0043128-4.3439978-1.0043128-.5346459 0-.8687995 0-.8687995 0s-9.75728743-44.5245345-10.09144111-50.2825946-2.60639869-12.4534788-3.47519825-16.80550096-.06683074-7.83363989-.06683074-7.83363989.06683074-.06695419.13366148-.06695419zm0-.20086256c-.13366148 0-.20049221.06695419-.26732295.13390837 0 .06695419-.06683073.13390838-.06683073.20086257-.13366147.46867931-.73513809 3.81638866.06683073 7.83363989.26732295 1.33908374.66830736 2.87903007 1.13612251 4.55288477 1.00246103 3.8833428 2.13858354 8.235365 2.40590648 12.185662.33415368 5.6911059 10.02461038 49.8808694 10.15827178 50.2825946l.0668308.2008625h.2004922.8687995c2.0717528 0 3.542029.334771 4.1435056.9373586l.4009845.4017252-.0668308-.6025877c0-.1339084-.8687995-10.2439907-4.6781515-23.5678739-1.8044298-6.1597852-2.7400601-9.5744488-5.94793544-39.9046955.06683073-1.4729921.40098444-8.57013598-.53464589-9.23967786h-.06683073s-2.74006016-.73649605-3.74252119-1.33908374c-.80196883-.5356335-3.54202899-2.0755798-4.07667487-2.0755798z" fill="#d2d3d4"/></g><g transform="translate(30.742138 22.764424)"><path d="m6.41575062 30.5311093c-.20049221 0-.40098442 0-.60147662 0l-1.8712606-.9373586v-.0669542c0-.2008625-2.0717528-19.81843936-2.27224501-20.82275217-.13366147-.60258769-.13366147-1.20517537-.20049221-1.87471724-.13366147-1.40603793-.26732294-3.1468468-1.1361225-6.15978522l-.06683074-.20086256.20049221.06695419c.06683074 0 2.33907574.53563349 3.20787531 1.0043128.66830735.33477094 8.35384194 9.641403 9.02214934 26.0451788 0 .4017251-.2004922.8704044-.6014767 1.1382212-.9356303.6695419-2.80689085 1.807763-5.68061248 1.807763z" fill="#fff"/><path d="m.33415368.66954187s2.33907574.5356335 3.20787531 1.00431281c.86879956.40172512 8.28701121 9.97617392 8.95531861 25.97822462 0 .4017251-.2004923.8034502-.5346459 1.071267-.8019689.6695419-2.67322945 1.807763-5.54695108 1.807763-.20049221 0-.40098442 0-.60147662 0l-1.80442987-.9373586s-2.0717528-19.81843938-2.27224501-20.82275218c-.40098441-2.07557981-.06683073-3.6824803-1.40344544-8.10145665zm-.26732294-.33477093.13366147.33477093c.86879956 3.01293842 1.00246103 4.75374729 1.1361225 6.15978522.06683074.60258768.13366147 1.20517537.20049221 1.87471724.2004922 1.00431281 2.27224501 20.62188967 2.27224501 20.82275217v.1339084l.13366147.0669542 1.80442986.9373586h.06683074.06683073.60147662c2.94055237 0 4.81181295-1.1382212 5.68061255-1.807763.4009844-.334771.6014766-.8034503.6014766-1.2721296-.6014766-15.6672798-7.8860268-25.57649949-9.02214931-26.11213298-.86879956-.40172513-3.14104457-1.00431281-3.27470604-1.00431281z" fill="#d2d3d4"/></g><g transform="translate(0 24.773049)"><path d="m22.8561116 30.6650177 13.8339622-.6695419c.4009844 0 .8019689-.2678167.9356303-.6695418l7.084058-16.9394094c.0668307-.2008625-.0668307-.4686793-.2673229-.4686793l-15.0369155.1339084c-.267323 0-.5346459.2008625-.6014767.4686793l-6.2152584 17.7428596c-.1336614.2008625 0 .4017251.267323.4017251z" fill="#d2d3d4"/><path d="m31.9450916 21.4253399s.2673229-2.4773049 1.8712606-3.213801 3.3415368-1.3390837 3.6088597-2.6112133c.1336615-.6695419 1.3366147-.6025877 1.0692918 1.0043128-.1336615.8034503-.6683074 1.4060379-1.0692918 1.7408089-.1336614.1339084-.1336614.4017251.0668308.4686793.5346458.2008625 1.4034454.5356335 2.1385835.3347709 1.1361225-.2678167 3.1410446-2.3433965 3.1410446-2.3433965s.8687995 1.1382212.4009844 1.9416714c-.4678152.7364961-1.0692918 1.071267-1.0692918 1.071267s.4678152.3347709.3341537 1.071267c-.1336615.736496-1.6039377 1.6069005-1.6039377 2.3433965 0 .7364961-.4009844 1.406038-2.272245 1.6738547-1.8712606.2678168-4.4776593.8704044-5.2127973 1.3390838-.7351381.4686793-1.4034455-4.8207015-1.4034455-4.8207015z" fill="#f9e6b4"/><path d="m29.6060159 21.4253399c1.6707683-.4017251 2.4727372-.9373586 2.4727372-.9373586s2.272245 2.7451216 3.0073831 6.6284645c0 0-1.8712606 1.3390837-3.8761827 1.6069005-2.0717528.3347709-3.274706-6.8293271-1.6039376-7.2980064z" fill="#88c6b1"/><path d="m14.9700848 31.8032389c-4.4776593 0-8.15334977-.4686793-9.55679522-.8704044-1.33661471-.4017252-2.67322942-4.6867931-4.47765928-14.7968754-1.73759913-9.9092197 1.1361225-13.79256255 1.20295324-13.79256255 1.00246103-1.13822118 2.0717528-1.74080887 2.0717528-1.74080887h.06683074.06683073c3.20787531 1.74080887 4.81181296 5.55719754 4.94547444 7.56582315.26732294 5.82501427 1.06929175 14.06037927 2.13858355 14.06037927.2004922-.0669542.4009844-.0669542.7351381-.0669542.6683073 0 1.6039376.0669542 2.6063987.2008626 1.4702761.1339084 3.3415367.3347709 5.2127973.3347709h1.269784c4.54449-.2008625 9.1558108-1.5399463 9.1558108-1.5399463h.0668307l.0668308.0669542c1.8044298 2.3433966 2.272245 7.6997315 2.272245 7.9675483v.0669542h-.0668308c-6.2152584 2.0755798-13.0988241 2.5442591-17.7769756 2.5442591z" fill="#fff"/><path d="m4.27716708.66954187c3.0073831 1.67385468 4.74498222 5.28938079 4.87864369 7.43191477.13366148 3.54857196.86879953 14.12733346 2.27224503 14.12733346h.0668307c.2004922 0 .4009844-.0669542.6683074-.0669542 1.6039376 0 4.6113207.5356335 7.8860268.5356335h1.2697839c4.6113208-.2008625 9.2226416-1.5399463 9.2226416-1.5399463 1.8044298 2.3433966 2.272245 7.9005941 2.272245 7.9005941-5.7474433 2.0755798-12.3636861 2.6781675-17.7769757 2.6781675-4.6113208 0-8.22018047-.4686793-9.55679518-.8704044-1.20295324-.4017252-2.53956795-4.285068-4.41082855-14.7299212-1.80442986-9.97617388 1.1361225-13.72560836 1.1361225-13.72560836 1.00246104-1.13822118 2.07175281-1.74080887 2.07175281-1.74080887zm0-.26781675-.13366147.06695419c-.06683074 0-1.06929177.66954187-2.07175281 1.80776305-.13366147.13390838-3.0073831 3.95029704-1.20295324 13.92647094 2.20541428 12.520433 3.47519825 14.5290586 4.54449002 14.8638295 1.40344545.4686793 5.14596662.8704045 9.62362592.8704045 4.6781515 0 11.5617173-.4686793 17.8438064-2.6781675l.1336615-.0669542v-.1339084c0-.2008625-.4678152-5.6241517-2.3390758-7.9675483l-.0668307-.1339083-.1336615.0669542c-.0668307 0-4.6113207 1.3390837-9.1558108 1.5399463-.4009844 0-.8687995 0-1.2697839 0-1.8712606 0-3.7425212-.2008626-5.2127974-.334771-1.0692918-.1339083-2.0049221-.2008625-2.6063987-.2008625-.2673229 0-.5346459 0-.6683073.0669542-.8687996 0-1.80442991-7.3649606-2.07175285-13.92647097-.06683073-2.00862561-1.73759912-5.89196847-4.94547443-7.63277733z" fill="#d2d3d4"/></g><path d="m24.5937107 20.6888438c-.0668307-.4686793-1.002461-1.071267-1.3366147-1.5399463-.2004922-.3347709-2.0049221 4.0842054-2.8068909 4.4189764 0 0 2.1385835 1.4060379 2.272245 3.6155261.1336615 1.5399463 2.0049221-4.8207015 1.8712606-6.4945562z" fill="#4ea583"/></g><ellipse cx="163.142814" cy="325.447753" fill="#e2e5e8" fill-rule="nonzero" rx="1.007333" ry="1" transform="matrix(.38028704 -.92486851 .92486851 .38028704 -199.894664 352.56984)"/><path d="m610.207325 256 .791435-46.524338c.065953-3.552519-2.506211-6.626815-5.935763-7.036721l-36.340057-4.372331-6.727198 22.066609-7.848397-44.133219-10.090796 34.842015-3.363599-16.259607-17.279664-2.732707-23.413286-3.074295" opacity=".736003" stroke="url(#m)" stroke-linecap="round" stroke-width="2.88"/><g fill-rule="nonzero" transform="translate(49 275)"><path d="m62.0043011.67088608-6.1247312.87215189c-.0688172 0-.0688172 0-.1376344 0l-53.60860217 7.98354431c-.82580645.13417721-1.51397849.93924052-1.51397849 1.74430382l-.34408602 34.2822785-.06881721 6.0379746c0 .8050633.68817205 1.4088608 1.5139785 1.2746836l6.12473118-.8721519h.13763441l53.6086021-7.9835443c.8258065-.1341772 1.5139785-.9392405 1.5139785-1.7443038l.3440861-34.2822785.0688172-6.03797468c0-.80506329-.6193549-1.40886076-1.5139785-1.27468354z" fill="#7d9aad" opacity=".05"/><path d="m56.2236559 16.1683544-47.62150536 7.2455697c-.20645162.0670886-.41290323-.1341773-.41290323-.4025317l.06881721-6.843038c0-.2012658.1376344-.335443.34408602-.335443l47.62150536-7.24556963c.2064516-.06708861.4129032.13417722.4129032.40253165l-.0688172 6.84303798c-.0688172.2012658-.2064516.335443-.344086.335443z" fill="#cbe4f6"/><path d="m55.8795699 23.3468354-40.8774194 6.1050633c-.2064516 0-.4129032-.1341772-.4129032-.335443s.2064516-.4025316.4129032-.4696203l40.8774194-6.1050632c.2064516 0 .4129032.1341772.4129032.335443 0 .2683544-.1376344.4025316-.4129032.4696202z" fill="#d3d4d6"/><path d="m11.6301075 29.5860759c0 .8721519-.7569892 1.6772152-1.65161288 1.8113925-.89462365.1341772-1.6516129-.4696203-1.5827957-1.3417722.06881721-.8721519.75698925-1.6772152 1.65161288-1.8113924.8258065-.1341772 1.5827957.4696203 1.5827957 1.3417721z" fill="#cbe4f6"/><path d="m55.8107527 30.4582278-40.8774194 6.1050633c-.2064516 0-.4129032-.1341772-.4129032-.335443s.2064516-.4025316.4129032-.4696203l40.8774194-6.1050632c.2064516 0 .4129032.1341772.4129032.335443 0 .2683544-.2064516.4696202-.4129032.4696202z" fill="#d3d4d6"/><path d="m11.4924731 36.6974684c0 .8721519-.7569892 1.6772151-1.65161288 1.8113924-.89462366.1341772-1.65161291-.4696203-1.5827957-1.3417722 0-.8721519.75698924-1.6772152 1.6516129-1.8113924.89462368-.1341772 1.65161288.4696203 1.58279568 1.3417722z" fill="#cbe4f6"/><path d="m55.7419355 37.435443-40.8774194 6.1050633c-.2064516 0-.4129032-.1341772-.4129032-.335443s.2064516-.4025317.4129032-.4696203l40.8774194-6.1050633c.2064516 0 .4129032.1341773.4129032.3354431 0 .2683544-.2064516.4696202-.4129032.4696202z" fill="#d3d4d6"/><path d="m11.4236559 43.6746835c0 .8721519-.7569892 1.6772152-1.65161289 1.8113924-.89462366.1341773-1.6516129-.4696202-1.5827957-1.3417721 0-.8721519.75698925-1.6772152 1.65161291-1.8113924.89462368-.1341772 1.65161288.4696202 1.58279568 1.3417721z" fill="#cbe4f6"/></g><g fill-rule="nonzero"><circle cx="456.439286" cy="129.378571" fill="#fbaa19" fill-opacity=".235" r="8.196429"/><g transform="translate(451.035714 124.035714)"><path d="m9.95714286 7.34642857-3.58214286-6.25357143c-.18214286-.36428571-.60714286-.60714285-1.03214286-.60714285s-.78928571.24285714-1.03214285.60714285l-3.58214286 6.25357143c-.18214286.36428572-.18214286.78928572 0 1.15357143s.60714286.60714286 1.03214286.60714286h7.10357142c.425 0 .78928572-.24285715 1.03214286-.60714286.30357143-.36428571.30357143-.78928571.06071429-1.15357143z" fill="#f1b53d"/><g fill="#fff"><path d="m5.40357143 2.91428571c-.12142857 0-.18214286.06071429-.18214286.18214286v2.85357143c0 .12142857.06071429.18214286.18214286.18214286s.18214286-.06071429.18214286-.18214286v-2.85357143c0-.06071428-.06071429-.18214286-.18214286-.18214286z"/><path d="m5.40357143 6.98214286c-.12142857 0-.18214286.06071428-.18214286.18214285v.12142858c0 .12142857.06071429.18214285.18214286.18214285.12142857 0 .18214286-.06071428.18214286-.18214285v-.12142858c0-.06071428-.06071429-.18214285-.18214286-.18214285z"/></g></g></g><g fill-rule="nonzero"><ellipse cx="180.5" cy="292.439286" fill="#3bb87e" fill-opacity=".205" rx="8.5" ry="8.196429"/><path d="m8.87777778.425c-.06296297-.06071429-.12592593-.12142857-.25185185-.12142857-.06296297 0-.18888889.06071428-.25185186.12142857l-4.72222222 5.58571429c-.31481481-.60714286-1.07037037-1.76071429-2.07777778-2.79285715-.06296296-.06071428-.12592592-.06071428-.18888888-.06071428-.06296297 0-.12592593 0-.18888889.06071428-.31481482.30357143-.50370371.48571429-.6925926.72857143-.12592592.12142857-.25185185.30357143-.44074074.425-.06296296.06071429-.06296296.12142857-.06296296.24285714 0 .06071429.06296296.18214286.12592593.18214286 1.32222222.91071429 2.7074074 3.46071429 3.08518518 4.25.06296296.12142857.25185185.24285714.37777778.24285714h.06296296c.12592593 0 .31481482-.06071428.37777778-.18214285.88148148-1.09285715 3.84074074-4.85714286 6.48518517-6.375.062963-.06071429.1259259-.12142857.1259259-.18214286s0-.18214286-.0629629-.24285714c-.5666667-.54642857-1.63703706-1.88214286-1.70000002-1.88214286" fill="#0c9967" transform="translate(175.148148 287.642857)"/></g><g fill="#f0524f" fill-rule="nonzero" transform="translate(604 259)"><ellipse cx="8.5" cy="8.5" fill-opacity=".207" rx="8.196429" ry="8.5"/><path d="m12.5678571 10.8296296-2.2464285-2.3296296 2.2464285-2.32962963c.1821429-.18888889.1821429-.5037037 0-.69259259l-1.1535714-1.1962963c-.1821428-.18888889-.4857143-.18888889-.6678571 0l-2.2464286 2.32962963-2.24642857-2.32962963c-.18214286-.18888889-.48571429-.18888889-.66785714 0l-1.15357143 1.1962963c-.18214286.18888889-.18214286.5037037 0 .69259259l2.24642857 2.32962963-2.24642857 2.3296296c-.18214286.1888889-.18214286.5037037 0 .6925926l1.15357143 1.1962963c.18214285.1888889.48571428.1888889.66785714 0l2.24642857-2.3296296 2.2464286 2.3296296c.1821428.1888889.4857143.1888889.6678571 0l1.1535714-1.1962963c.1821429-.1888889.1821429-.5037037 0-.6925926z"/></g><g stroke="#ceebf4" stroke-width=".7811" transform="translate(158.962963 74.83965)"><path d="m1.03703704.67172012c-.11851852 0-.17777778.05597667-.17777778.16793003v2.63090379c0 .11195335.05925926.16793003.17777778.16793003s.17777777-.05597668.17777777-.16793003v-2.63090379c0-.11195336-.05925925-.16793003-.17777777-.16793003z"/><path d="m1.03703704 4.42215743c-.11851852 0-.17777778.05597668-.17777778.16793003v.11195336c0 .11195335.05925926.16793003.17777778.16793003.11851852 0 .17777777-.05597668.17777777-.16793003v-.11195336c0-.05597667-.05925925-.16793003-.17777777-.16793003z"/></g><path d="m203 320 170.884508 38 167.115492-33.70318" stroke="url(#n)" stroke-linecap="round" stroke-width="2.88"/><path d="m423.756757 103.243243 3.243243 1.756757-3.243243 1.824324-1.756757 3.175676-1.756757-3.175676-3.243243-1.824324 3.243243-1.756757 1.756757-3.243243z" fill="#ceebf4" fill-rule="nonzero"/><g fill="#ceebf4" fill-rule="nonzero" transform="translate(697 218)"><path d="m6 9.86666667c-.525 0-.975-.4-.975-.86666667v-7.73333333c0-.46666667.45-.86666667.975-.86666667s.975.4.975.86666667v7.73333333c0 .46666667-.45.86666667-.975.86666667z"/><path d="m10.35 6h-8.7c-.525 0-.975-.4-.975-.86666667 0-.46666666.45-.86666666.975-.86666666h8.7c.525 0 .975.4.975.86666666-.075.46666667-.45.86666667-.975.86666667z"/></g></g></svg>